# Blender v2.75 (sub 0) OBJ File: 'FloatingIsland1.blend'
# www.blender.org
mtllib FloatingIsland1.mtl
o Cylinder
v -0.003290 -0.999896 -2.415201
v 0.060367 0.909492 -3.106412
v 0.483859 -0.989834 -2.298864
v 0.857564 0.901175 -2.944530
v 0.930692 -0.993818 -1.905884
v 1.799306 0.901175 -1.867569
v 1.307382 -1.011027 -1.331130
v 2.407790 0.901175 -1.283950
v 1.609397 -1.035893 -0.698517
v 2.582969 0.901175 -0.596702
v 1.846311 -1.055269 -0.060975
v 2.465581 0.901175 0.418197
v 1.957822 -1.057846 0.568498
v 2.463766 0.901175 2.087108
v 1.888386 -1.040876 1.172879
v 2.193788 0.901175 2.912239
v 1.549455 -1.005840 1.796049
v 1.682031 0.901175 3.255510
v 0.888079 -0.980089 2.310285
v 0.721051 0.901175 3.364166
v 0.128222 -0.970892 2.496192
v -0.398591 0.901175 3.354294
v -0.554725 -0.978366 2.320412
v -1.040949 0.901175 3.269994
v -1.150838 -0.994606 1.865785
v -1.386518 0.901175 3.043047
v -1.626075 -1.003531 1.282911
v -1.540659 0.901175 2.619075
v -1.851000 -1.003531 0.648025
v -1.766843 0.901175 1.980803
v -1.803318 -1.003531 -0.044188
v -2.005683 0.901175 1.135673
v -1.598082 -1.003531 -0.715267
v -2.069413 0.901175 0.305879
v -1.298247 -1.003531 -1.334482
v -1.967616 0.901175 -0.680006
v -0.938648 -1.003531 -1.878199
v -1.303748 0.901175 -2.164639
v -0.494063 -1.003531 -2.262526
v -0.479352 0.901175 -2.972508
v 0.002766 -1.900233 -1.932308
v 0.392352 -1.892186 -1.839270
v 0.749696 -1.895373 -1.524993
v 1.050945 -1.909135 -1.065347
v 1.292475 -1.929021 -0.559429
v 1.481942 -1.944516 -0.049570
v 1.571120 -1.946577 0.453837
v 1.515590 -1.933006 0.937176
v 1.244538 -1.904987 1.435542
v 0.715618 -1.884393 1.846790
v 0.107939 -1.877038 1.995466
v -0.438232 -1.883015 1.854889
v -0.914959 -1.896002 1.491312
v -1.295019 -1.903140 1.025172
v -1.474897 -1.903140 0.517437
v -1.436765 -1.903140 -0.036145
v -1.272632 -1.903140 -0.572825
v -1.032846 -1.903140 -1.068027
v -0.745265 -1.903140 -1.502853
v -0.389718 -1.903140 -1.810209
v 0.021031 -3.809024 -1.171093
v 0.194149 -3.804342 -1.094076
v 0.343257 -3.807604 -0.846483
v 0.471068 -3.818300 -0.530729
v 0.628151 -3.832788 -0.237345
v 0.820750 -3.843513 0.027754
v 0.954329 -3.844630 0.270116
v 0.956003 -3.834993 0.484227
v 0.801642 -3.815111 0.713475
v 0.502688 -3.799647 1.020336
v 0.161380 -3.792843 1.323701
v -0.149352 -3.795594 1.436119
v -0.441966 -3.803808 1.340911
v -0.718413 -3.808785 1.058349
v -0.856010 -3.809027 0.654838
v -0.774172 -3.808534 0.239918
v -0.601333 -3.807980 -0.149046
v -0.439248 -3.808083 -0.506389
v -0.300984 -3.808795 -0.824771
v -0.150931 -3.809939 -1.069706
v 0.062785 1.296646 -3.019432
v 0.841325 1.288524 -2.861339
v 1.761028 1.288524 -1.809582
v 2.355272 1.288524 -1.239621
v 2.526351 1.288524 -0.568456
v 2.411710 1.288524 0.422692
v 2.409937 1.288524 2.052547
v 2.146278 1.288524 2.858367
v 1.646497 1.288524 3.193605
v 0.708007 1.288524 3.299718
v -0.385433 1.288524 3.290076
v -1.012758 1.288524 3.207750
v -1.350240 1.288524 2.986114
v -1.500773 1.288524 2.572064
v -1.721665 1.288524 1.948729
v -1.954915 1.288524 1.123377
v -2.017154 1.288524 0.313002
v -1.917739 1.288524 -0.649810
v -1.269407 1.288524 -2.099699
v -0.464303 1.288524 -2.888662
v 0.072265 1.508296 -2.678853
v 0.777690 1.500937 -2.535607
v 1.611020 1.500937 -1.582624
v 2.149457 1.500937 -1.066190
v 2.304469 1.500937 -0.458056
v 2.200594 1.500937 0.440009
v 2.198988 1.500937 1.916799
v 1.960090 1.500937 2.646942
v 1.507245 1.500937 2.950696
v 0.656892 1.500937 3.046844
v -0.333859 1.500937 3.038108
v -0.902270 1.500937 2.963513
v -1.208058 1.500937 2.762692
v -1.344454 1.500937 2.387527
v -1.544601 1.500937 1.822731
v -1.755945 1.500937 1.074891
v -1.812340 1.500937 0.340621
v -1.722261 1.500937 -0.531770
v -1.134816 1.500937 -1.845496
v -0.405323 1.500937 -2.560364
v 0.014003 -6.242150 0.042524
v 0.079989 -6.240476 0.077426
v 0.130864 -6.241434 0.178236
v 0.153795 -6.245103 0.288033
v 0.192830 -6.250096 0.366479
v 0.264535 -6.253688 0.430825
v 0.312768 -6.254062 0.503221
v 0.293178 -6.250859 0.610932
v 0.197684 -6.244277 0.763035
v 0.062973 -6.239040 0.948117
v -0.053961 -6.236670 1.078264
v -0.156350 -6.237709 1.090837
v -0.274418 -6.240800 1.023931
v -0.440264 -6.243298 0.893968
v -0.584166 -6.244421 0.728309
v -0.586666 -6.244740 0.550308
v -0.436503 -6.244220 0.332501
v -0.264387 -6.243291 0.199207
v -0.140737 -6.242618 0.135214
v -0.054880 -6.242597 0.069070
v -0.027566 -6.654394 0.287464
v 0.004502 -6.653580 0.304426
v 0.029226 -6.654046 0.353417
v 0.040369 -6.655829 0.406776
v 0.059340 -6.658256 0.444898
v 0.094187 -6.660001 0.476169
v 0.117627 -6.660182 0.511352
v 0.108106 -6.658626 0.563696
v 0.061699 -6.655427 0.637614
v -0.003767 -6.652882 0.727560
v -0.060594 -6.651731 0.790808
v -0.110353 -6.652236 0.796918
v -0.167731 -6.653738 0.764403
v -0.248328 -6.654952 0.701245
v -0.318260 -6.655498 0.620738
v -0.319475 -6.655653 0.534235
v -0.246500 -6.655400 0.428386
v -0.162856 -6.654949 0.363608
v -0.102766 -6.654621 0.332510
v -0.061041 -6.654611 0.300365
vt 0.499239 0.599866
vt 0.445648 0.599866
vt 0.460825 0.467756
vt 0.353972 0.579231
vt 0.422523 0.459268
vt 0.299215 0.569134
vt 0.378735 0.444775
vt 0.256123 0.550460
vt 0.334328 0.427427
vt 0.197984 0.516477
vt 0.291439 0.409806
vt 0.099407 0.465890
vt 0.252031 0.391693
vt 0.050789 0.434280
vt 0.215762 0.372660
vt 0.025789 0.401892
vt 0.176551 0.345019
vt 0.000128 0.342942
vt 0.138363 0.303388
vt 0.999872 0.287128
vt 0.962867 0.348929
vt 0.864838 0.251112
vt 0.939939 0.383916
vt 0.835384 0.287726
vt 0.920757 0.402687
vt 0.797584 0.320961
vt 0.895173 0.417009
vt 0.757961 0.351012
vt 0.857184 0.439570
vt 0.721419 0.374305
vt 0.807450 0.468461
vt 0.682153 0.395167
vt 0.760186 0.494401
vt 0.641283 0.414909
vt 0.703555 0.524211
vt 0.600597 0.433250
vt 0.607335 0.568264
vt 0.352791 0.613410
vt 0.402817 0.636647
vt 0.385559 0.658889
vt 0.535407 0.593389
vt 0.493407 0.468017
vt 0.525912 0.461766
vt 0.683345 0.320683
vt 0.714273 0.298951
vt 0.580942 0.371435
vt 0.548090 0.384982
vt 0.513180 0.243872
vt 0.561690 0.449599
vt 0.517341 0.394768
vt 0.429063 0.391894
vt 0.461289 0.399132
vt 0.259646 0.320324
vt 0.747348 0.271983
vt 0.779258 0.243606
vt 0.321936 0.350854
vt 0.887013 0.205430
vt 0.805087 0.213792
vt 0.649719 0.339311
vt 0.489178 0.399559
vt 0.393041 0.379711
vt 0.227476 0.297962
vt 0.289520 0.336174
vt 0.615195 0.356237
vt 0.356834 0.365416
vt 0.195598 0.265500
vt 0.616143 0.189960
vt 0.588660 0.205421
vt 0.516674 0.045361
vt 0.681398 0.137712
vt 0.405154 0.231070
vt 0.426911 0.239579
vt 0.494826 0.252565
vt 0.665034 0.153080
vt 0.383306 0.223838
vt 0.481412 0.256430
vt 0.642223 0.171574
vt 0.364940 0.217521
vt 0.351260 0.211335
vt 0.334937 0.200918
vt 0.468203 0.255372
vt 0.560614 0.219469
vt 0.311374 0.182928
vt 0.449011 0.248806
vt 0.535206 0.232349
vt 0.826737 0.177173
vt 0.695985 0.119048
vt 0.076707 0.884392
vt 0.063273 0.862492
vt 0.083735 0.854071
vt 0.031693 0.737427
vt 0.052442 0.665072
vt 0.077274 0.680569
vt 0.129311 0.949353
vt 0.082156 0.924487
vt 0.100617 0.901139
vt 0.437909 0.928879
vt 0.420246 0.906590
vt 0.473563 0.857202
vt 0.445899 0.682658
vt 0.507308 0.767740
vt 0.479665 0.775268
vt 0.147009 0.605044
vt 0.154407 0.633719
vt 0.101407 0.650375
vt 0.054049 0.901207
vt 0.037860 0.873099
vt 0.255975 0.979204
vt 0.256115 0.950480
vt 0.322050 0.945695
vt 0.273822 0.605045
vt 0.342976 0.641204
vt 0.027197 0.823411
vt 0.061001 0.743172
vt 0.192927 0.971432
vt 0.142373 0.922925
vt 0.499109 0.869655
vt 0.485104 0.824870
vt 0.422862 0.700447
vt 0.084706 0.628606
vt 0.511956 0.828582
vt 0.329591 0.972796
vt 0.271555 0.635350
vt 0.057134 0.820320
vt 0.199849 0.942776
vt 0.401512 0.712644
vt 0.313400 0.926426
vt 0.268385 0.657423
vt 0.331804 0.660569
vt 0.449838 0.849781
vt 0.459808 0.821569
vt 0.095433 0.874436
vt 0.164079 0.654303
vt 0.118197 0.887156
vt 0.116660 0.666756
vt 0.154998 0.905299
vt 0.205493 0.922926
vt 0.255044 0.929938
vt 0.096073 0.693566
vt 0.454963 0.777960
vt 0.083973 0.749341
vt 0.401158 0.892040
vt 0.080101 0.817127
vt 0.370234 0.675100
vt 0.657726 0.950056
vt 0.644313 0.952032
vt 0.649936 0.900368
vt 0.411029 0.044888
vt 0.421476 0.051474
vt 0.460442 0.066784
vt 0.465616 0.067318
vt 0.500552 0.053845
vt 0.397962 0.036116
vt 0.453072 0.064150
vt 0.486748 0.059986
vt 0.563060 0.009587
vt 0.570391 0.000128
vt 0.445971 0.060920
vt 0.477620 0.063279
vt 0.558049 0.014657
vt 0.440332 0.058584
vt 0.470592 0.066019
vt 0.550722 0.020651
vt 0.433895 0.056793
vt 0.539233 0.029669
vt 0.428149 0.054963
vt 0.527092 0.038808
vt 0.672295 0.876901
vt 0.662429 0.896291
vt 0.658153 0.897156
vt 0.605418 0.805792
vt 0.643773 0.789677
vt 0.650979 0.854787
vt 0.626782 0.947946
vt 0.645279 0.898537
vt 0.675518 0.795076
vt 0.659881 0.857055
vt 0.600348 0.931538
vt 0.639248 0.892750
vt 0.717019 0.928857
vt 0.673108 0.894990
vt 0.675542 0.892584
vt 0.714772 0.829828
vt 0.668355 0.866867
vt 0.574329 0.898291
vt 0.632029 0.884561
vt 0.700916 0.937939
vt 0.667941 0.896155
vt 0.727826 0.868729
vt 0.563482 0.869137
vt 0.627098 0.877158
vt 0.684022 0.942823
vt 0.727826 0.891741
vt 0.673724 0.883579
vt 0.565421 0.852584
vt 0.627559 0.871808
vt 0.671845 0.945795
vt 0.726929 0.908857
vt 0.675365 0.888946
vt 0.577650 0.833007
vt 0.632409 0.866460
vt 0.653975 0.899253
vt 0.724358 0.919906
vt 0.640951 0.859969
vt 0.712709 0.091912
vn -0.017400 -0.060600 -0.998000
vn 0.490000 -0.074500 -0.868500
vn 0.413200 -0.401400 -0.817400
vn 0.725700 -0.086900 -0.682500
vn 0.695000 -0.371400 -0.615600
vn 0.861800 -0.120200 -0.492700
vn 0.789300 -0.381500 -0.481100
vn 0.988800 -0.120700 -0.087100
vn 0.843000 -0.396900 -0.363000
vn 0.996000 -0.076100 0.045700
vn 0.907400 -0.355800 -0.223400
vn 0.978200 -0.100600 0.181300
vn 0.940300 -0.338900 -0.029900
vn 0.768100 -0.170400 0.617200
vn 0.870100 -0.415000 0.265600
vn 0.353600 -0.181600 0.917600
vn 0.651100 -0.500500 0.570500
vn 0.062600 -0.149900 0.986700
vn 0.349800 -0.498400 0.793200
vn -0.078700 -0.147100 0.986000
vn -0.005900 -0.472400 0.881300
vn -0.347800 -0.161400 0.923600
vn -0.365900 -0.474800 0.800400
vn -0.756300 -0.138900 0.639200
vn -0.635500 -0.431500 0.640200
vn -0.932600 -0.074700 0.352900
vn -0.833300 -0.336600 0.438400
vn -0.950700 -0.020400 0.309300
vn -0.960100 -0.254600 0.115100
vn -0.984400 -0.003800 0.175600
vn -0.957800 -0.228800 -0.173800
vn -0.999800 -0.012000 -0.018100
vn -0.904500 -0.254500 -0.342100
vn -0.965600 -0.020200 -0.259000
vn -0.837500 -0.285300 -0.466000
vn -0.810900 -0.028000 -0.584400
vn 0.754300 0.484300 -0.443200
vn -0.471500 -0.050500 -0.880400
vn -0.025800 -0.406200 -0.913400
vn -0.461300 -0.364600 -0.808800
vn -0.927500 -0.356600 0.111600
vn -0.824800 -0.338700 0.452700
vn -0.808600 -0.372700 -0.455200
vn -0.700300 -0.380300 -0.604100
vn -0.839100 -0.308700 -0.447900
vn -0.707800 -0.318100 -0.630700
vn -0.449500 -0.404700 -0.796300
vn 0.703100 -0.371000 -0.606600
vn 0.429700 -0.404900 -0.807100
vn 0.873000 -0.389400 0.293500
vn -0.656400 -0.328500 0.679100
vn -0.404000 -0.353700 0.843600
vn 0.904100 -0.339200 -0.259700
vn 0.003200 -0.395800 0.918300
vn -0.914000 -0.365000 -0.177100
vn -0.025300 -0.425700 -0.904500
vn 0.808800 -0.363700 -0.462100
vn 0.681100 -0.422800 0.597800
vn 0.936400 -0.349700 -0.027900
vn -0.863900 -0.371900 -0.339500
vn 0.853300 -0.354700 -0.382000
vn 0.397400 -0.422500 0.814600
vn -0.975900 -0.205700 0.073100
vn -0.927100 -0.233200 -0.293500
vn -0.910900 -0.321700 -0.258200
vn 0.007100 -0.215500 0.976500
vn 0.799100 -0.316300 -0.511200
vn 0.859600 -0.305600 -0.409400
vn -0.641700 -0.363000 -0.675600
vn -0.518300 -0.191200 0.833500
vn 0.804200 -0.304600 -0.510400
vn -0.043500 -0.423000 -0.905100
vn -0.828300 -0.187700 0.527900
vn 0.925500 -0.294600 -0.238100
vn 0.916300 -0.292000 0.274100
vn 0.743200 -0.280500 0.607300
vn 0.607100 -0.370100 -0.703100
vn -0.878100 -0.268000 -0.396200
vn 0.658800 -0.270700 0.701900
vn 0.843300 -0.309200 -0.439600
vn -0.872200 -0.290700 -0.393400
vn 0.487000 -0.243500 0.838700
vn -0.689300 0.467400 0.553500
vn -0.304500 0.490500 0.816500
vn -0.125800 0.928900 0.348200
vn 0.301100 0.498100 0.813200
vn -0.844300 0.441700 0.303400
vn -0.713700 0.485300 -0.505100
vn -0.413700 0.530000 -0.740200
vn 0.427100 0.523900 -0.736900
vn 0.877100 0.457400 0.146400
vn 0.692700 0.490600 0.528700
vn -0.903000 0.429300 -0.013000
vn -0.864700 0.443500 -0.235900
vn 0.888300 0.454400 -0.066100
vn 0.046000 0.492600 0.869000
vn -0.857100 0.436200 0.273900
vn -0.019000 0.557100 -0.830200
vn 0.621400 0.513400 -0.591800
vn 0.893000 0.446800 0.053000
vn -0.061400 0.492300 0.868300
vn -0.889900 0.427400 0.159000
vn 0.232300 0.946500 -0.224000
vn -0.397000 0.912700 -0.096600
vn 0.372900 0.927600 0.020400
vn 0.405100 0.914200 -0.011400
vn -0.186800 0.940100 -0.285100
vn -0.008000 0.958500 -0.285000
vn -0.338100 0.911900 0.232500
vn 0.396200 0.916800 0.049300
vn -0.364200 0.922100 0.130300
vn 0.315000 0.923800 0.217500
vn -0.377800 0.918300 0.118200
vn -0.406000 0.911100 0.071000
vn -0.409400 0.912300 -0.003300
vn 0.117500 0.930700 0.346300
vn 0.202700 0.935200 -0.290100
vn 0.016600 0.936000 0.351500
vn -0.324000 0.924300 -0.201500
vn -0.023000 0.936000 0.351300
vn 0.336300 0.923800 -0.183000
vn 0.716100 -0.318200 -0.621200
vn 0.919600 -0.351400 -0.175400
vn 0.585600 -0.800900 -0.124800
vn 0.783400 -0.292900 0.548100
vn 0.876300 -0.321300 0.358900
vn 0.667100 -0.395700 -0.631100
vn 0.063800 -0.474800 -0.877800
vn -0.701900 -0.304500 -0.643900
vn 0.736000 -0.285700 0.613700
vn 0.901900 -0.289000 -0.320800
vn -0.518800 -0.330300 -0.788500
vn 0.420100 -0.332000 0.844500
vn 0.899200 -0.288000 -0.329400
vn -0.511400 -0.359200 -0.780600
vn -0.174500 -0.360300 0.916300
vn 0.744600 -0.313500 -0.589300
vn -0.451400 -0.403900 -0.795600
vn -0.517200 -0.351700 0.780200
vn -0.644300 -0.343900 0.683100
vn -0.878100 -0.343100 0.333400
vn -0.300900 -0.825000 -0.478400
vn 0.508300 -0.830200 -0.228800
vn 0.396300 -0.858500 -0.325300
vn -0.498500 -0.845500 0.191400
vn 0.518100 -0.823200 0.232000
vn -0.525100 -0.830700 -0.184900
vn 0.448900 -0.832500 0.324700
vn 0.451700 -0.798900 -0.397000
vn 0.033400 -0.818800 -0.573000
vn -0.404600 -0.825700 -0.393100
vn 0.430300 -0.827200 0.361200
vn 0.577100 -0.790900 -0.203300
vn 0.300300 -0.814500 0.496400
vn -0.272900 -0.852300 -0.446200
vn -0.094100 -0.846900 0.523300
vn -0.286000 -0.825300 -0.486900
vn -0.264400 -0.871100 0.413900
vn 0.409200 -0.824200 -0.391400
vn -0.337100 -0.868200 0.364000
usemtl None
s 1
f 2/1/1 4/2/2 3/3/3
f 4/2/2 6/4/4 5/5/5
f 6/4/4 8/6/6 7/7/7
f 8/6/6 10/8/8 9/9/9
f 10/8/8 12/10/10 11/11/11
f 12/10/10 14/12/12 13/13/13
f 14/12/12 16/14/14 15/15/15
f 16/14/14 18/16/16 17/17/17
f 18/16/16 20/18/18 19/19/19
f 20/20/18 22/21/20 21/22/21
f 22/21/20 24/23/22 23/24/23
f 23/24/23 24/23/22 26/25/24
f 25/26/25 26/25/24 28/27/26
f 27/28/27 28/27/26 30/29/28
f 29/30/29 30/29/28 32/31/30
f 31/32/31 32/31/30 34/33/32
f 33/34/33 34/33/32 36/35/34
f 35/36/35 36/35/34 38/37/36
f 10/38/8 8/39/6 84/40/37
f 40/41/38 2/1/1 1/42/39
f 38/37/36 40/41/38 39/43/40
f 29/30/29 55/44/41 54/45/42
f 58/46/43 59/47/44 79/48/45
f 37/49/46 39/43/40 60/50/47
f 5/5/5 43/51/48 42/52/49
f 13/13/13 15/15/15 48/53/50
f 25/26/25 53/54/51 52/55/52
f 33/34/33 35/36/35 58/46/43
f 9/9/9 11/11/11 46/56/53
f 19/57/19 21/22/21 51/58/54
f 31/32/31 56/59/55 55/44/41
f 39/43/40 1/42/39 41/60/56
f 7/7/7 44/61/57 43/51/48
f 15/15/15 17/17/17 49/62/58
f 27/28/27 54/45/42 53/54/51
f 3/3/3 42/52/49 41/60/56
f 35/36/35 37/49/46 59/47/44
f 11/11/11 13/13/13 47/63/59
f 23/24/23 52/55/52 51/58/54
f 33/34/33 57/64/60 56/59/55
f 9/9/9 45/65/61 44/61/57
f 17/17/17 19/19/19 50/66/62
f 75/67/63 76/68/64 136/69/65
f 51/58/54 52/55/52 72/70/66
f 45/65/61 65/71/67 64/72/68
f 59/47/44 60/50/47 80/73/69
f 52/55/52 53/54/51 73/74/70
f 45/65/61 46/56/53 66/75/71
f 60/50/47 41/60/56 61/76/72
f 53/54/51 54/45/42 74/77/73
f 46/56/53 47/63/59 67/78/74
f 54/45/42 55/44/41 75/67/63
f 47/63/59 48/53/50 68/79/75
f 55/44/41 56/59/55 76/68/64
f 48/53/50 49/62/58 69/80/76
f 42/52/49 62/81/77 61/76/72
f 56/59/55 57/64/60 77/82/78
f 49/62/58 50/66/62 70/83/79
f 43/51/48 63/84/80 62/81/77
f 57/64/60 58/46/43 78/85/81
f 50/86/62 51/58/54 71/87/82
f 44/61/57 64/72/68 63/84/80
f 93/88/83 92/89/84 112/90/85
f 20/91/18 18/92/16 89/93/86
f 30/94/28 28/95/26 94/96/87
f 38/97/36 99/98/88 100/99/89
f 6/100/4 4/101/2 82/102/90
f 14/103/12 87/104/91 88/105/92
f 26/106/24 24/107/22 92/89/84
f 34/108/32 97/109/93 98/110/94
f 12/111/10 10/38/8 85/112/95
f 22/113/20 20/91/18 90/114/96
f 32/115/30 30/94/28 95/116/97
f 40/117/38 100/99/89 81/118/98
f 8/39/6 6/100/4 83/119/99
f 18/92/16 16/120/14 88/105/92
f 4/101/2 2/121/1 81/118/98
f 28/95/26 26/106/24 93/88/83
f 36/122/34 98/110/94 99/98/88
f 12/111/10 86/123/100 87/104/91
f 22/113/20 91/124/101 92/89/84
f 32/115/30 96/125/102 97/109/93
f 103/126/103 118/127/104 106/128/105
f 86/123/100 85/112/95 105/129/106
f 100/99/89 120/130/107 101/131/108
f 94/96/87 93/88/83 113/132/109
f 86/123/100 106/128/105 107/133/110
f 95/116/97 94/96/87 114/134/111
f 87/104/91 107/133/110 108/135/112
f 96/125/102 95/116/97 115/136/113
f 89/93/86 88/105/92 108/135/112
f 82/102/90 81/118/98 101/131/108
f 96/125/102 116/137/114 117/138/115
f 90/114/96 89/93/86 109/139/116
f 83/119/99 82/102/90 102/140/117
f 97/109/93 117/138/115 118/127/104
f 91/124/101 90/114/96 110/141/118
f 84/40/37 83/119/99 103/126/103
f 98/110/94 118/127/104 119/142/119
f 91/124/101 111/143/120 112/90/85
f 85/112/95 84/40/37 104/144/121
f 99/98/88 119/142/119 120/130/107
f 126/145/122 127/146/123 147/147/124
f 69/80/76 129/148/125 128/149/126
f 62/81/77 122/150/127 121/151/128
f 76/68/64 77/82/78 137/152/129
f 70/83/79 130/153/130 129/148/125
f 63/84/80 123/154/131 122/150/127
f 77/82/78 78/85/81 138/155/132
f 71/87/82 131/156/133 130/157/130
f 64/72/68 124/158/134 123/154/131
f 78/85/81 79/48/45 139/159/135
f 72/70/66 132/160/136 131/156/133
f 65/71/67 125/161/137 124/158/134
f 79/48/45 80/73/69 140/162/138
f 73/74/70 133/163/139 132/160/136
f 66/75/71 126/164/122 125/161/137
f 80/73/69 61/76/72 121/151/128
f 74/77/73 134/165/140 133/163/139
f 66/75/71 67/78/74 127/166/123
f 74/77/73 75/67/63 135/167/141
f 68/79/75 128/149/126 127/166/123
f 158/168/142 144/169/143 145/170/144
f 134/171/140 135/172/141 155/173/145
f 128/174/126 148/175/146 147/147/124
f 136/176/65 156/177/147 155/173/145
f 128/174/126 129/178/125 149/179/148
f 122/180/127 142/181/149 141/182/150
f 137/183/129 157/184/151 156/177/147
f 129/178/125 130/185/130 150/186/152
f 123/187/131 143/188/153 142/181/149
f 138/189/132 158/168/142 157/184/151
f 130/185/130 131/190/133 151/191/154
f 124/192/134 144/169/143 143/188/153
f 138/189/132 139/193/135 159/194/155
f 131/190/133 132/195/136 152/196/156
f 125/197/137 145/170/144 144/169/143
f 139/193/135 140/198/138 160/199/157
f 133/200/139 153/201/158 152/196/156
f 125/197/137 126/145/122 146/202/159
f 140/198/138 121/203/128 141/182/150
f 134/171/140 154/204/160 153/201/158
f 1/42/39 2/1/1 3/3/3
f 3/3/3 4/2/2 5/5/5
f 5/5/5 6/4/4 7/7/7
f 7/7/7 8/6/6 9/9/9
f 9/9/9 10/8/8 11/11/11
f 11/11/11 12/10/10 13/13/13
f 13/13/13 14/12/12 15/15/15
f 15/15/15 16/14/14 17/17/17
f 17/17/17 18/16/16 19/19/19
f 19/57/19 20/20/18 21/22/21
f 21/22/21 22/21/20 23/24/23
f 25/26/25 23/24/23 26/25/24
f 27/28/27 25/26/25 28/27/26
f 29/30/29 27/28/27 30/29/28
f 31/32/31 29/30/29 32/31/30
f 33/34/33 31/32/31 34/33/32
f 35/36/35 33/34/33 36/35/34
f 37/49/46 35/36/35 38/37/36
f 85/112/95 10/38/8 84/40/37
f 39/43/40 40/41/38 1/42/39
f 37/49/46 38/37/36 39/43/40
f 27/28/27 29/30/29 54/45/42
f 78/85/81 58/46/43 79/48/45
f 59/47/44 37/49/46 60/50/47
f 3/3/3 5/5/5 42/52/49
f 47/63/59 13/13/13 48/53/50
f 23/24/23 25/26/25 52/55/52
f 57/64/60 33/34/33 58/46/43
f 45/65/61 9/9/9 46/56/53
f 50/86/62 19/57/19 51/58/54
f 29/30/29 31/32/31 55/44/41
f 60/50/47 39/43/40 41/60/56
f 5/5/5 7/7/7 43/51/48
f 48/53/50 15/15/15 49/62/58
f 25/26/25 27/28/27 53/54/51
f 1/42/39 3/3/3 41/60/56
f 58/46/43 35/36/35 59/47/44
f 46/56/53 11/11/11 47/63/59
f 21/22/21 23/24/23 51/58/54
f 31/32/31 33/34/33 56/59/55
f 7/7/7 9/9/9 44/61/57
f 49/62/58 17/17/17 50/66/62
f 135/167/141 75/67/63 136/69/65
f 71/87/82 51/58/54 72/70/66
f 44/61/57 45/65/61 64/72/68
f 79/48/45 59/47/44 80/73/69
f 72/70/66 52/55/52 73/74/70
f 65/71/67 45/65/61 66/75/71
f 80/73/69 60/50/47 61/76/72
f 73/74/70 53/54/51 74/77/73
f 66/75/71 46/56/53 67/78/74
f 74/77/73 54/45/42 75/67/63
f 67/78/74 47/63/59 68/79/75
f 75/67/63 55/44/41 76/68/64
f 68/79/75 48/53/50 69/80/76
f 41/60/56 42/52/49 61/76/72
f 76/68/64 56/59/55 77/82/78
f 69/80/76 49/62/58 70/83/79
f 42/52/49 43/51/48 62/81/77
f 77/82/78 57/64/60 78/85/81
f 70/205/79 50/86/62 71/87/82
f 43/51/48 44/61/57 63/84/80
f 113/132/109 93/88/83 112/90/85
f 90/114/96 20/91/18 89/93/86
f 95/116/97 30/94/28 94/96/87
f 40/117/38 38/97/36 100/99/89
f 83/119/99 6/100/4 82/102/90
f 16/120/14 14/103/12 88/105/92
f 93/88/83 26/106/24 92/89/84
f 36/122/34 34/108/32 98/110/94
f 86/123/100 12/111/10 85/112/95
f 91/124/101 22/113/20 90/114/96
f 96/125/102 32/115/30 95/116/97
f 2/121/1 40/117/38 81/118/98
f 84/40/37 8/39/6 83/119/99
f 89/93/86 18/92/16 88/105/92
f 82/102/90 4/101/2 81/118/98
f 94/96/87 28/95/26 93/88/83
f 38/97/36 36/122/34 99/98/88
f 14/103/12 12/111/10 87/104/91
f 24/107/22 22/113/20 92/89/84
f 34/108/32 32/115/30 97/109/93
f 105/129/106 104/144/121 103/126/103
f 120/130/107 102/140/117 101/131/108
f 102/140/117 120/130/107 119/142/119
f 106/128/105 118/127/104 117/138/115
f 106/128/105 116/137/114 115/136/113
f 112/90/85 114/134/111 113/132/109
f 114/134/111 112/90/85 111/143/120
f 107/133/110 110/141/118 109/139/116
f 109/139/116 108/135/112 107/133/110
f 106/128/105 105/129/106 103/126/103
f 110/141/118 107/133/110 106/128/105
f 106/128/105 115/136/113 110/141/118
f 111/143/120 115/136/113 114/134/111
f 103/126/103 119/142/119 118/127/104
f 119/142/119 103/126/103 102/140/117
f 115/136/113 111/143/120 110/141/118
f 106/128/105 117/138/115 116/137/114
f 106/128/105 86/123/100 105/129/106
f 81/118/98 100/99/89 101/131/108
f 114/134/111 94/96/87 113/132/109
f 87/104/91 86/123/100 107/133/110
f 115/136/113 95/116/97 114/134/111
f 88/105/92 87/104/91 108/135/112
f 116/137/114 96/125/102 115/136/113
f 109/139/116 89/93/86 108/135/112
f 102/140/117 82/102/90 101/131/108
f 97/109/93 96/125/102 117/138/115
f 110/141/118 90/114/96 109/139/116
f 103/126/103 83/119/99 102/140/117
f 98/110/94 97/109/93 118/127/104
f 111/143/120 91/124/101 110/141/118
f 104/144/121 84/40/37 103/126/103
f 99/98/88 98/110/94 119/142/119
f 92/89/84 91/124/101 112/90/85
f 105/129/106 85/112/95 104/144/121
f 100/99/89 99/98/88 120/130/107
f 146/202/159 126/145/122 147/147/124
f 68/79/75 69/80/76 128/149/126
f 61/76/72 62/81/77 121/151/128
f 136/69/65 76/68/64 137/152/129
f 69/80/76 70/83/79 129/148/125
f 62/81/77 63/84/80 122/150/127
f 137/152/129 77/82/78 138/155/132
f 70/205/79 71/87/82 130/157/130
f 63/84/80 64/72/68 123/154/131
f 138/155/132 78/85/81 139/159/135
f 71/87/82 72/70/66 131/156/133
f 64/72/68 65/71/67 124/158/134
f 139/159/135 79/48/45 140/162/138
f 72/70/66 73/74/70 132/160/136
f 65/71/67 66/75/71 125/161/137
f 140/162/138 80/73/69 121/151/128
f 73/74/70 74/77/73 133/163/139
f 126/164/122 66/75/71 127/166/123
f 134/165/140 74/77/73 135/167/141
f 67/78/74 68/79/75 127/166/123
f 142/181/149 160/199/157 141/182/150
f 144/169/143 158/168/142 159/194/155
f 154/204/160 156/177/147 157/184/151
f 156/177/147 154/204/160 155/173/145
f 151/191/154 152/196/156 153/201/158
f 153/201/158 150/186/152 151/191/154
f 145/170/144 148/175/146 149/179/148
f 148/175/146 146/202/159 147/147/124
f 159/194/155 143/188/153 144/169/143
f 145/170/144 146/202/159 148/175/146
f 159/194/155 160/199/157 143/188/153
f 157/184/151 145/170/144 149/179/148
f 154/204/160 150/186/152 153/201/158
f 149/179/148 154/204/160 157/184/151
f 142/181/149 143/188/153 160/199/157
f 157/184/151 158/168/142 145/170/144
f 149/179/148 150/186/152 154/204/160
f 154/204/160 134/171/140 155/173/145
f 127/146/123 128/174/126 147/147/124
f 135/172/141 136/176/65 155/173/145
f 148/175/146 128/174/126 149/179/148
f 121/203/128 122/180/127 141/182/150
f 136/176/65 137/183/129 156/177/147
f 149/179/148 129/178/125 150/186/152
f 122/180/127 123/187/131 142/181/149
f 137/183/129 138/189/132 157/184/151
f 150/186/152 130/185/130 151/191/154
f 123/187/131 124/192/134 143/188/153
f 158/168/142 138/189/132 159/194/155
f 151/191/154 131/190/133 152/196/156
f 124/192/134 125/197/137 144/169/143
f 159/194/155 139/193/135 160/199/157
f 132/195/136 133/200/139 152/196/156
f 145/170/144 125/197/137 146/202/159
f 160/199/157 140/198/138 141/182/150
f 133/200/139 134/171/140 153/201/158
