# Blender v2.75 (sub 0) OBJ File: 'MainIsland.blend'
# www.blender.org
o Cube.001_Cube.002
v -43.116024 -3.170058 15.315470
v -43.116024 -1.170058 15.315470
v -37.313496 -3.170058 -28.624456
v -37.313496 -1.170058 -28.624456
v 41.324699 -3.170062 39.620701
v 41.324699 -1.170062 39.620701
v 40.534061 -3.170057 -20.836601
v 40.534061 -1.170057 -20.836601
v -46.896084 -4.288214 17.171934
v -47.859562 -2.540210 17.044701
v -40.477169 -4.288204 -31.435654
v -41.440647 -2.540200 -31.562887
v -51.602077 -7.618854 20.063768
v -53.362953 -6.699856 19.829733
v -44.624737 -7.600591 -33.000492
v -46.385616 -6.681597 -33.234531
v -52.818821 -9.991193 19.902966
v -54.579700 -9.072196 19.668930
v -45.841480 -9.972930 -33.161301
v -47.602360 -9.053936 -33.395332
v -52.818821 -203.892563 19.902962
v -54.579700 -203.892563 19.668928
v -47.602360 -203.892563 -33.395329
v -45.841480 -203.892563 -33.161297
vt 0.237195 0.708891
vt 0.145221 0.708891
vt 0.145221 0.693263
vt 0.937831 0.984862
vt 0.851048 0.984862
vt 0.851048 0.708891
vt 0.078945 0.675909
vt 0.036328 0.675909
vt 0.036328 0.474026
vt 0.237195 0.984862
vt 0.937831 0.693263
vt 0.851048 0.693263
vt 0.851048 0.671396
vt 0.237195 0.693263
vt 0.937831 0.671396
vt 0.851048 0.662480
vt 0.145221 0.671396
vt 0.237195 0.671396
vt 0.237195 0.662480
vt 0.237195 0.012135
vt 0.851048 0.012135
vt 0.145221 0.662480
vt 0.037114 0.375569
vt 0.037149 0.196856
vt 0.067399 0.196865
vt 0.937831 0.012135
vt 0.145221 0.012135
vt 0.937831 0.708891
vt 0.078948 0.474026
vt 0.145221 0.984862
vt 0.937831 0.662480
vt 0.067363 0.375578
vn 0.342500 0.000000 0.939500
vn 0.099500 0.000000 -0.995000
vn 0.999900 0.000000 -0.013100
vn -0.276600 0.000000 0.961000
vn 0.000000 -1.000000 0.000000
vn -0.000000 1.000000 -0.000000
vn 0.288200 0.089500 -0.953400
vn 0.301400 -0.952700 0.039800
vn -0.290200 0.956200 -0.038300
vn 0.585600 0.267100 -0.765300
vn 0.131600 -0.000300 -0.991300
vn 0.113800 0.444400 0.888600
vn 0.608000 -0.789900 0.079700
vn -0.623400 0.777600 -0.082300
vn 0.991500 -0.000000 0.130400
vn -0.131600 0.000300 0.991300
vn 0.880600 -0.459500 0.115600
vn -0.880600 0.459500 -0.115600
vn -0.991500 -0.000000 -0.130400
vn 0.131700 -0.000000 -0.991300
vn -0.131700 -0.000000 0.991300
vn 0.361100 0.264100 0.894300
vn 0.204900 0.146100 -0.967800
vn 0.301300 -0.952700 0.039800
vn 0.580000 0.000000 -0.814600
vn 0.362000 0.264600 0.893800
vn 0.603500 -0.793300 0.079700
vn -0.627100 0.774600 -0.082200
vn 0.131800 -0.000000 -0.991300
s off
f 1/1/1 2/2/1 10/3/1
f 8/4/2 7/5/2 3/6/2
f 6/7/3 5/8/3 7/9/3
f 2/2/4 1/1/4 5/10/4
f 1/1/5 3/6/5 7/5/5
f 8/10/6 4/1/6 2/6/6
f 12/11/7 11/12/7 15/13/7
f 3/6/8 1/1/8 9/14/8
f 4/1/9 12/14/9 10/12/9
f 3/6/10 11/12/10 12/11/10
f 16/15/11 15/13/11 19/16/11
f 10/3/12 14/17/12 13/18/12
f 9/14/13 13/18/13 15/13/13
f 10/12/14 12/14/14 16/18/14
f 17/19/15 21/20/15 24/21/15
f 13/18/16 14/17/16 18/22/16
f 13/18/17 17/19/17 19/16/17
f 16/18/18 20/19/18 18/16/18
f 22/23/5 23/24/5 24/25/5
f 18/16/19 20/19/19 23/20/19
f 19/16/20 24/21/20 23/26/20
f 17/19/21 18/22/21 22/27/21
f 9/14/22 1/1/22 10/3/22
f 4/28/2 8/4/2 3/6/2
f 8/29/3 6/7/3 7/9/3
f 6/30/4 2/2/4 5/10/4
f 5/10/5 1/1/5 7/5/5
f 6/5/6 8/10/6 2/6/6
f 16/15/23 12/11/23 15/13/23
f 11/12/24 3/6/24 9/14/24
f 2/6/9 4/1/9 10/12/9
f 4/28/25 3/6/25 12/11/25
f 20/31/11 16/15/11 19/16/11
f 9/14/26 10/3/26 13/18/26
f 11/12/27 9/14/27 15/13/27
f 14/13/28 10/12/28 16/18/28
f 19/16/15 17/19/15 24/21/15
f 17/19/16 13/18/16 18/22/16
f 15/13/17 13/18/17 19/16/17
f 14/13/18 16/18/18 18/16/18
f 21/32/5 22/23/5 24/25/5
f 22/21/19 18/16/19 23/20/19
f 20/31/29 19/16/29 23/26/29
f 21/20/21 17/19/21 22/27/21
