# Blender v2.75 (sub 0) OBJ File: 'MainIsland.blend'
# www.blender.org
o Cube.001_Cube.002
v -28.300793 -2.414440 9.414623
v -28.300793 -1.139243 9.414623
v -24.601112 -2.414440 -18.601395
v -24.601112 -1.139243 -18.601395
v 25.538456 -2.414443 24.911596
v 25.538456 -1.139246 24.911596
v 25.034348 -2.414439 -13.635872
v 25.034348 -1.139243 -13.635872
v -30.710953 -3.127374 10.598301
v -31.325266 -2.012850 10.517178
v -26.618263 -3.127367 -20.393808
v -27.232576 -2.012844 -20.474934
v -33.711487 -5.250984 12.442130
v -34.834221 -4.665033 12.292910
v -29.262749 -5.239339 -21.391548
v -30.385483 -4.653391 -21.540770
v -34.487282 -6.763583 12.339602
v -35.610016 -6.177632 12.190382
v -30.038540 -6.751939 -21.494078
v -31.161274 -6.165990 -21.643297
v -34.487282 -293.885620 12.339601
v -35.610016 -293.885620 12.190380
v -31.161274 -293.885620 -21.643297
v -30.038540 -293.885620 -21.494074
vt 0.237195 0.708891
vt 0.145221 0.708891
vt 0.145221 0.693263
vt 0.937831 0.984862
vt 0.851048 0.984862
vt 0.851048 0.708891
vt 0.078945 0.675909
vt 0.036328 0.675909
vt 0.036328 0.474026
vt 0.237195 0.984862
vt 0.937831 0.693263
vt 0.851048 0.693263
vt 0.851048 0.671396
vt 0.237195 0.693263
vt 0.937831 0.671396
vt 0.851048 0.662480
vt 0.145221 0.671396
vt 0.237195 0.671396
vt 0.237195 0.662480
vt 0.237195 0.012135
vt 0.851048 0.012135
vt 0.145221 0.662480
vt 0.037114 0.375569
vt 0.037149 0.196856
vt 0.067399 0.196865
vt 0.937831 0.012135
vt 0.145221 0.012135
vt 0.937831 0.708891
vt 0.078948 0.474026
vt 0.145221 0.984862
vt 0.937831 0.662480
vt 0.067363 0.375578
vn 0.169700 -0.730000 0.662000
vn -0.126500 0.802900 0.582500
vn -0.161400 0.810300 0.563400
vn 0.598600 0.583500 -0.548800
vn 0.598600 -0.583500 -0.548800
vn 0.376300 -0.710600 -0.594400
vn 0.501100 0.563500 0.656800
vn 0.501100 -0.563500 0.656800
vn 0.072000 0.793500 -0.604300
vn -0.052100 0.730800 -0.680500
vn 0.659100 -0.395900 -0.639400
vn 0.627600 -0.339100 -0.700800
vn 0.608100 -0.371700 0.701400
vn -0.453200 0.495600 -0.740900
vn 0.721200 -0.152400 -0.675700
vn -0.558900 0.550800 0.619800
vn 0.498100 -0.167500 0.850800
vn 0.520900 -0.152400 0.839900
vn 0.496700 -0.577300 0.648100
vn 0.648000 -0.577400 -0.496700
vn -0.811800 0.178100 0.556000
vn -0.639600 0.178100 -0.747700
vn -0.648000 -0.577400 0.496700
vn -0.496700 -0.577300 -0.648100
s 1
f 1/1/1 2/2/2 10/3/3
f 8/4/4 7/5/5 3/6/6
f 6/7/7 5/8/8 7/9/5
f 2/2/2 1/1/1 5/10/8
f 1/1/1 3/6/6 7/5/5
f 8/10/4 4/1/9 2/6/2
f 12/11/10 11/12/11 15/13/12
f 3/6/6 1/1/1 9/14/13
f 4/1/9 12/14/10 10/12/3
f 3/6/6 11/12/11 12/11/10
f 16/15/14 15/13/12 19/16/15
f 10/3/3 14/17/16 13/18/17
f 9/14/13 13/18/17 15/13/12
f 10/12/3 12/14/10 16/18/14
f 17/19/18 21/20/19 24/21/20
f 13/18/17 14/17/16 18/22/21
f 13/18/17 17/19/18 19/16/15
f 16/18/14 20/19/22 18/16/21
f 22/23/23 23/24/24 24/25/20
f 18/16/21 20/19/22 23/20/24
f 19/16/15 24/21/20 23/26/24
f 17/19/18 18/22/21 22/27/23
f 9/14/13 1/1/1 10/3/3
f 4/28/9 8/4/4 3/6/6
f 8/29/4 6/7/7 7/9/5
f 6/30/7 2/2/2 5/10/8
f 5/10/8 1/1/1 7/5/5
f 6/5/7 8/10/4 2/6/2
f 16/15/14 12/11/10 15/13/12
f 11/12/11 3/6/6 9/14/13
f 2/6/2 4/1/9 10/12/3
f 4/28/9 3/6/6 12/11/10
f 20/31/22 16/15/14 19/16/15
f 9/14/13 10/3/3 13/18/17
f 11/12/11 9/14/13 15/13/12
f 14/13/16 10/12/3 16/18/14
f 19/16/15 17/19/18 24/21/20
f 17/19/18 13/18/17 18/22/21
f 15/13/12 13/18/17 19/16/15
f 14/13/16 16/18/14 18/16/21
f 21/32/19 22/23/23 24/25/20
f 22/21/23 18/16/21 23/20/24
f 20/31/22 19/16/15 23/26/24
f 21/20/19 17/19/18 22/27/23
