# Blender v2.75 (sub 0) OBJ File: 'Rock.blend'
# www.blender.org
o Cube_Cube.001
v -0.707107 1.904952 0.000000
v -0.923880 0.914768 0.000000
v -0.923880 0.240685 0.000000
v -0.707107 0.080097 0.000000
v -0.382683 0.011204 0.000000
v -0.309597 2.242542 -0.224936
v -0.572061 1.428475 -0.415627
v -0.747434 0.795993 -0.543043
v -0.809017 0.491937 -0.587785
v -0.747434 0.240685 -0.543043
v -0.572061 0.080097 -0.415627
v -0.309597 0.011204 -0.224936
v -0.118256 2.169692 -0.363953
v -0.218508 1.213798 -0.672498
v -0.285495 0.795993 -0.878661
v -0.309017 0.491937 -0.951056
v -0.285495 0.240685 -0.878661
v -0.218508 0.080097 -0.672498
v -0.118256 0.011204 -0.363953
v -0.000000 2.566684 0.000000
v 0.118255 2.221670 -0.363954
v 0.218508 1.254459 -0.672498
v 0.285494 0.796448 -0.878661
v 0.309017 0.491937 -0.951056
v 0.285494 0.240685 -0.878661
v 0.218508 0.080097 -0.672498
v 0.118255 0.011204 -0.363954
v 0.309597 2.341398 -0.224936
v 0.572061 1.343696 -0.415627
v 0.747434 0.802630 -0.543043
v 0.809017 0.491937 -0.587785
v 0.747434 0.240685 -0.543043
v 0.572061 0.080097 -0.415627
v 0.309597 0.011204 -0.224936
v 0.382683 2.438587 -0.000000
v 0.707107 1.506421 -0.000000
v 0.923879 0.796448 -0.000000
v 1.000000 0.491937 0.000000
v 0.923879 0.240684 -0.000000
v 0.707107 0.080097 -0.000000
v 0.382683 0.011204 -0.000000
v 0.309597 2.478725 0.224936
v 0.572061 1.781211 0.415627
v 0.747434 0.890364 0.543043
v 0.809017 0.491937 0.587785
v 0.747434 0.240684 0.543043
v 0.572061 0.080097 0.415627
v 0.309597 0.011204 0.224936
v 0.118256 2.536373 0.363953
v 0.218508 2.042902 0.672498
v 0.285494 1.128457 0.878662
v 0.309017 0.532295 0.951056
v 0.285494 0.240684 0.878662
v 0.218508 0.080097 0.672498
v 0.118256 0.011204 0.363953
v -0.118256 2.602964 0.363954
v -0.218508 2.154350 0.672498
v -0.285495 1.264632 0.878662
v -0.309017 0.586720 0.951056
v -0.285495 0.241775 0.878662
v -0.218508 0.080097 0.672498
v -0.118256 0.011204 0.363954
v -0.000000 0.000005 0.000000
v -0.309597 2.506176 0.224936
v -0.572061 2.067351 0.415627
v -0.747434 1.160055 0.543043
v -0.809017 0.532295 0.587785
v -0.747434 0.240685 0.543043
v -0.572061 0.080097 0.415627
v -0.309597 0.011204 0.224936
v -0.382684 2.363097 0.000000
v -1.000000 0.491937 0.000000
vt 0.150195 0.874723
vt 0.127111 0.803678
vt 0.183409 0.803813
vt 0.267433 0.171184
vt 0.035970 0.140899
vt 0.272813 0.005570
vt 0.349849 0.225099
vt 0.391499 0.195085
vt 0.398056 0.218794
vt 0.383912 0.166767
vt 0.457347 0.168280
vt 0.366333 0.112775
vt 0.506797 0.013021
vt 0.445132 0.196392
vt 0.435557 0.219781
vt 0.478645 0.117275
vt 0.578452 0.905692
vt 0.658594 0.701844
vt 0.701566 0.730685
vt 0.150195 0.732633
vt 0.195662 0.765833
vt 0.486438 0.231239
vt 0.464590 0.243590
vt 0.560299 0.192862
vt 0.513208 0.217200
vt 0.747476 0.714962
vt 0.837457 0.940921
vt 0.210630 0.688724
vt 0.638527 0.161363
vt 0.573585 0.296988
vt 0.526394 0.288654
vt 0.774271 0.675742
vt 0.939316 0.847458
vt 0.285331 0.688724
vt 0.267805 0.742225
vt 0.497235 0.283355
vt 0.657765 0.339443
vt 0.472827 0.279879
vt 0.345766 0.732633
vt 0.300140 0.765615
vt 0.493244 0.349094
vt 0.474630 0.329512
vt 0.580774 0.501066
vt 0.527495 0.384121
vt 0.457787 0.313307
vt 0.780835 0.634276
vt 0.982908 0.710206
vt 0.417630 0.614027
vt 0.443935 0.437774
vt 0.431697 0.353903
vt 0.435931 0.379938
vt 0.769660 0.596953
vt 0.934141 0.560210
vt 0.368850 0.803678
vt 0.312551 0.803543
vt 0.427275 0.331651
vt 0.383739 0.349663
vt 0.329205 0.460699
vt 0.371216 0.376966
vt 0.736353 0.574841
vt 0.807790 0.462610
vt 0.345766 0.874723
vt 0.300299 0.841522
vt 0.210898 0.614027
vt 0.699241 0.580985
vt 0.658135 0.462610
vt 0.285331 0.918631
vt 0.268062 0.865047
vt 0.315930 0.338868
vt 0.345763 0.319255
vt 0.071888 0.502463
vt 0.223284 0.400602
vt 0.365694 0.306345
vt 0.210630 0.918631
vt 0.228155 0.865130
vt 0.302171 0.271948
vt 0.005570 0.337349
vt 0.333324 0.271577
vt 0.199637 0.280474
vt 0.663557 0.600608
vt 0.515207 0.712227
vt 0.642822 0.649414
vt 0.326530 0.207861
vt 0.718102 0.632857
vt 0.247980 0.803678
vt 0.195821 0.841741
vt 0.227898 0.742309
vt 0.368029 0.239611
vt 0.537938 0.556169
vt 0.709079 0.980264
vt 0.392703 0.329168
vt 0.356057 0.272451
vn -0.444900 -0.895600 0.000000
vn -0.359900 -0.895600 -0.261500
vn -0.110500 -0.990600 -0.080300
vn -0.976900 0.203900 -0.064200
vn -0.901100 0.374600 -0.218100
vn -0.655100 0.297800 -0.694400
vn -0.836200 -0.548400 0.000000
vn -0.676500 -0.548400 -0.491500
vn -0.808800 -0.023200 -0.587600
vn -0.308900 -0.023200 -0.950800
vn -0.755700 0.288200 -0.588100
vn -0.248800 0.371900 -0.894300
vn -0.258400 -0.548400 -0.795300
vn -0.137500 -0.895600 -0.423100
vn -0.289900 0.346700 -0.892000
vn -0.493500 0.557700 -0.667400
vn -0.242000 0.477400 -0.844700
vn -0.042200 -0.990600 -0.129900
vn 0.258400 -0.548400 -0.795300
vn 0.137500 -0.895600 -0.423100
vn 0.286500 0.334200 -0.897900
vn 0.308900 -0.023400 -0.950800
vn 0.119200 0.494100 -0.861200
vn 0.246800 0.369700 -0.895700
vn 0.765300 0.309500 -0.564200
vn 0.808700 -0.024900 -0.587600
vn 0.502900 0.571900 -0.648000
vn 0.717800 0.329200 -0.613500
vn 0.359900 -0.895600 -0.261500
vn 0.110500 -0.990600 -0.080300
vn 0.676500 -0.548400 -0.491500
vn 0.444900 -0.895600 0.000000
vn 0.136600 -0.990600 0.000000
vn 0.999700 -0.023400 0.000000
vn 0.836200 -0.548400 0.000000
vn 0.949800 0.288900 -0.120000
vn 0.962800 0.269300 -0.020600
vn 0.708900 0.680700 -0.184400
vn 0.853800 0.301700 0.424100
vn 0.820600 0.210100 0.531400
vn 0.676500 -0.548400 0.491500
vn 0.811800 -0.048200 0.581900
vn 0.629300 0.733100 0.257900
vn 0.359900 -0.895600 0.261500
vn 0.110500 -0.990600 0.080300
vn 0.257600 -0.533300 0.805700
vn 0.357200 0.180800 0.916300
vn 0.314400 -0.054200 0.947700
vn 0.358000 0.801500 0.478900
vn 0.410200 0.376900 0.830500
vn 0.137500 -0.895600 0.423100
vn 0.042200 -0.990600 0.129900
vn -0.178000 0.895000 0.409000
vn -0.274500 0.436900 0.856600
vn -0.137900 -0.895000 0.424300
vn -0.042200 -0.990600 0.129900
vn -0.308000 -0.038900 0.950600
vn -0.264400 -0.517600 0.813700
vn -0.299400 0.181100 0.936800
vn -0.359900 -0.895600 0.261500
vn -0.110500 -0.990600 0.080300
vn -0.811000 -0.057400 0.582200
vn -0.796000 0.420400 0.435300
vn -0.682000 -0.533300 0.500400
vn -0.823800 0.175400 0.539000
vn -0.643300 0.763000 0.063400
vn -0.669100 0.666100 -0.329400
vn -0.998600 -0.052400 -0.007200
vn -0.032100 0.925500 -0.377200
vn 0.000000 -1.000000 0.000000
vn -0.136600 -0.990600 0.000000
vn 0.042200 -0.990600 -0.129900
s 1
f 4/1/1 11/2/2 12/3/3
f 2/4/4 1/5/5 7/6/6
f 3/7/7 10/8/8 11/9/2
f 10/8/8 9/10/9 16/11/10
f 8/12/11 7/6/6 14/13/12
f 10/8/8 17/14/13 18/15/14
f 8/12/11 15/16/15 16/11/10
f 7/17/6 6/18/16 13/19/17
f 11/2/2 18/20/14 19/21/18
f 17/14/13 25/22/19 26/23/20
f 15/16/15 23/24/21 24/25/22
f 13/19/17 21/26/23 22/27/24
f 19/21/18 18/20/14 26/28/20
f 16/11/10 24/25/22 25/22/19
f 14/13/12 22/29/24 23/24/21
f 23/24/21 30/30/25 31/31/26
f 21/26/23 28/32/27 29/33/28
f 26/28/20 33/34/29 34/35/30
f 24/25/22 31/31/26 32/36/31
f 22/29/24 29/37/28 30/30/25
f 25/22/19 32/36/31 33/38/29
f 33/34/29 40/39/32 41/40/33
f 31/31/26 38/41/34 39/42/35
f 29/37/28 36/43/36 37/44/37
f 32/36/31 39/42/35 40/45/32
f 31/31/26 30/30/25 37/44/37
f 28/32/27 35/46/38 36/47/36
f 36/43/36 43/48/39 44/49/40
f 40/45/32 39/42/35 46/50/41
f 37/44/37 44/49/40 45/51/42
f 35/46/38 42/52/43 43/53/39
f 40/39/32 47/54/44 48/55/45
f 39/42/35 38/41/34 45/51/42
f 47/56/44 46/50/41 53/57/46
f 44/49/40 51/58/47 52/59/48
f 42/52/43 49/60/49 50/61/50
f 47/54/44 54/62/51 55/63/52
f 45/51/42 52/59/48 53/57/46
f 43/48/39 50/64/50 51/58/47
f 49/60/49 56/65/53 57/66/54
f 54/62/51 61/67/55 62/68/56
f 52/59/48 59/69/57 60/70/58
f 50/64/50 57/71/54 58/72/59
f 53/57/46 60/70/58 61/73/55
f 51/58/47 58/72/59 59/69/57
f 61/67/55 69/74/60 70/75/61
f 60/70/58 59/69/57 67/76/62
f 58/72/59 57/71/54 65/77/63
f 61/73/55 60/70/58 68/78/64
f 59/69/57 58/72/59 66/79/65
f 57/66/54 56/65/53 64/80/66
f 1/81/5 71/82/67 6/18/16
f 72/83/68 9/10/9 10/8/8
f 71/82/67 20/84/69 6/18/16
f 63/85/70 5/86/71 12/3/3
f 72/83/68 2/4/4 8/12/11
f 6/18/16 20/84/69 13/19/17
f 63/85/70 12/3/3 19/21/18
f 63/85/70 19/21/18 27/87/72
f 13/19/17 20/84/69 21/26/23
f 21/26/23 20/84/69 28/32/27
f 63/85/70 27/87/72 34/35/30
f 28/32/27 20/84/69 35/46/38
f 63/85/70 34/35/30 41/40/33
f 35/46/38 20/84/69 42/52/43
f 63/85/70 41/40/33 48/55/45
f 63/85/70 48/55/45 55/63/52
f 42/52/43 20/84/69 49/60/49
f 49/60/49 20/84/69 56/65/53
f 63/85/70 55/63/52 62/68/56
f 56/65/53 20/84/69 64/80/66
f 63/85/70 62/68/56 70/75/61
f 64/80/66 20/84/69 71/82/67
f 63/85/70 70/75/61 5/86/71
f 68/78/64 3/7/7 4/88/1
f 67/76/62 66/79/65 2/4/4
f 65/89/63 64/80/66 71/82/67
f 69/74/60 4/1/1 5/86/71
f 68/78/64 67/76/62 72/83/68
f 66/79/65 65/77/63 1/5/5
f 5/86/71 4/1/1 12/3/3
f 8/12/11 2/4/4 7/6/6
f 4/88/1 3/7/7 11/9/2
f 17/14/13 10/8/8 16/11/10
f 15/16/15 8/12/11 14/13/12
f 11/9/2 10/8/8 18/15/14
f 9/10/9 8/12/11 16/11/10
f 14/90/12 7/17/6 13/19/17
f 12/3/3 11/2/2 19/21/18
f 18/15/14 17/14/13 26/23/20
f 16/11/10 15/16/15 24/25/22
f 14/90/12 13/19/17 22/27/24
f 27/87/72 19/21/18 26/28/20
f 17/14/13 16/11/10 25/22/19
f 15/16/15 14/13/12 23/24/21
f 24/25/22 23/24/21 31/31/26
f 22/27/24 21/26/23 29/33/28
f 27/87/72 26/28/20 34/35/30
f 25/22/19 24/25/22 32/36/31
f 23/24/21 22/29/24 30/30/25
f 26/23/20 25/22/19 33/38/29
f 34/35/30 33/34/29 41/40/33
f 32/36/31 31/31/26 39/42/35
f 30/30/25 29/37/28 37/44/37
f 33/38/29 32/36/31 40/45/32
f 38/41/34 31/31/26 37/44/37
f 29/33/28 28/32/27 36/47/36
f 37/44/37 36/43/36 44/49/40
f 47/56/44 40/45/32 46/50/41
f 38/41/34 37/44/37 45/51/42
f 36/47/36 35/46/38 43/53/39
f 41/40/33 40/39/32 48/55/45
f 46/50/41 39/42/35 45/51/42
f 54/91/51 47/56/44 53/57/46
f 45/51/42 44/49/40 52/59/48
f 43/53/39 42/52/43 50/61/50
f 48/55/45 47/54/44 55/63/52
f 46/50/41 45/51/42 53/57/46
f 44/49/40 43/48/39 51/58/47
f 50/61/50 49/60/49 57/66/54
f 55/63/52 54/62/51 62/68/56
f 53/57/46 52/59/48 60/70/58
f 51/58/47 50/64/50 58/72/59
f 54/91/51 53/57/46 61/73/55
f 52/59/48 51/58/47 59/69/57
f 62/68/56 61/67/55 70/75/61
f 68/78/64 60/70/58 67/76/62
f 66/79/65 58/72/59 65/77/63
f 69/92/60 61/73/55 68/78/64
f 67/76/62 59/69/57 66/79/65
f 65/89/63 57/66/54 64/80/66
f 7/17/6 1/81/5 6/18/16
f 3/7/7 72/83/68 10/8/8
f 9/10/9 72/83/68 8/12/11
f 69/92/60 68/78/64 4/88/1
f 72/83/68 67/76/62 2/4/4
f 1/81/5 65/89/63 71/82/67
f 70/75/61 69/74/60 5/86/71
f 3/7/7 68/78/64 72/83/68
f 2/4/4 66/79/65 1/5/5
