# Blender v2.75 (sub 0) OBJ File: 'MainIsland.blend'
# www.blender.org
o Cube.001_Cube.002
v -18.023834 -1.890286 5.321352
v -18.023834 -1.117868 5.321352
v -15.782845 -1.890286 -11.648644
v -15.782845 -1.117868 -11.648644
v 14.587934 -1.890288 14.708250
v 14.587934 -1.117870 14.708250
v 14.282580 -1.890286 -8.640904
v 14.282580 -1.117868 -8.640904
v -19.483727 -2.322128 6.038334
v -19.855831 -1.647033 5.989195
v -17.004684 -2.322124 -12.734354
v -17.376787 -1.647029 -12.783493
v -21.301224 -3.608451 7.155188
v -21.981291 -3.253526 7.064800
v -18.606514 -3.601398 -13.338709
v -19.286579 -3.246474 -13.429096
v -21.771141 -4.524670 7.093083
v -22.451210 -4.169745 7.002697
v -19.076431 -4.517616 -13.400814
v -19.756496 -4.162693 -13.491199
v -21.771141 -107.317566 7.093081
v -22.451210 -107.317566 7.002696
v -19.756496 -107.317566 -13.491199
v -19.076431 -107.317566 -13.400812
vt 0.237195 0.708891
vt 0.145221 0.708891
vt 0.145221 0.693263
vt 0.937831 0.708891
vt 0.937831 0.984862
vt 0.851048 0.984862
vt 0.078945 0.675909
vt 0.036328 0.675909
vt 0.036328 0.474026
vt 0.145221 0.984862
vt 0.851048 0.708891
vt 0.237195 0.984862
vt 0.937831 0.693263
vt 0.851048 0.693263
vt 0.851048 0.671396
vt 0.237195 0.693263
vt 0.851048 0.662480
vt 0.937831 0.662480
vt 0.145221 0.671396
vt 0.237195 0.671396
vt 0.237195 0.662480
vt 0.237195 0.012135
vt 0.851048 0.012135
vt 0.145221 0.662480
vt 0.037114 0.375569
vt 0.037149 0.196856
vt 0.067399 0.196865
vt 0.937831 0.012135
vt 0.145221 0.012135
vt 0.078948 0.474026
vt 0.937831 0.671396
vt 0.067363 0.375578
vn 0.169700 -0.730000 0.662000
vn -0.126500 0.802900 0.582500
vn -0.161400 0.810300 0.563400
vn 0.072000 0.793500 -0.604300
vn 0.598600 0.583500 -0.548800
vn 0.598600 -0.583500 -0.548800
vn 0.501100 0.563500 0.656800
vn 0.501100 -0.563500 0.656800
vn 0.376300 -0.710600 -0.594400
vn -0.052100 0.730800 -0.680500
vn 0.659100 -0.395900 -0.639400
vn 0.627600 -0.339100 -0.700800
vn 0.608100 -0.371700 0.701400
vn 0.721200 -0.152400 -0.675700
vn -0.639600 0.178100 -0.747700
vn -0.558900 0.550800 0.619800
vn 0.498100 -0.167500 0.850800
vn -0.453200 0.495600 -0.740900
vn 0.520900 -0.152400 0.839900
vn 0.496700 -0.577300 0.648100
vn 0.648000 -0.577400 -0.496700
vn -0.811800 0.178100 0.556000
vn -0.648000 -0.577400 0.496700
vn -0.496700 -0.577300 -0.648100
s 1
f 1/1/1 2/2/2 10/3/3
f 4/4/4 8/5/5 7/6/6
f 6/7/7 5/8/8 7/9/6
f 6/10/7 2/2/2 1/1/1
f 1/1/1 3/11/9 7/6/6
f 8/12/5 4/1/4 2/11/2
f 12/13/10 11/14/11 15/15/12
f 3/11/9 1/1/1 9/16/13
f 4/1/4 12/16/10 10/14/3
f 3/11/9 11/14/11 12/13/10
f 15/15/12 19/17/14 20/18/15
f 10/3/3 14/19/16 13/20/17
f 9/16/13 13/20/17 15/15/12
f 10/14/3 12/16/10 16/20/18
f 17/21/19 21/22/20 24/23/21
f 14/19/16 18/24/22 17/21/19
f 13/20/17 17/21/19 19/17/14
f 16/20/18 20/21/15 18/17/22
f 22/25/23 23/26/24 24/27/21
f 18/17/22 20/21/15 23/22/24
f 19/17/14 24/23/21 23/28/24
f 17/21/19 18/24/22 22/29/23
f 9/16/13 1/1/1 10/3/3
f 3/11/9 4/4/4 7/6/6
f 8/30/5 6/7/7 7/9/6
f 5/12/8 6/10/7 1/1/1
f 5/12/8 1/1/1 7/6/6
f 6/6/7 8/12/5 2/11/2
f 16/31/18 12/13/10 15/15/12
f 11/14/11 3/11/9 9/16/13
f 2/11/2 4/1/4 10/14/3
f 4/4/4 3/11/9 12/13/10
f 16/31/18 15/15/12 20/18/15
f 9/16/13 10/3/3 13/20/17
f 11/14/11 9/16/13 15/15/12
f 14/15/16 10/14/3 16/20/18
f 19/17/14 17/21/19 24/23/21
f 13/20/17 14/19/16 17/21/19
f 15/15/12 13/20/17 19/17/14
f 14/15/16 16/20/18 18/17/22
f 21/32/20 22/25/23 24/27/21
f 22/23/23 18/17/22 23/22/24
f 20/18/15 19/17/14 23/28/24
f 21/22/20 17/21/19 22/29/23
