# Blender v2.75 (sub 0) OBJ File: 'TransportOffset.blend'
# www.blender.org
o Cube.001
v 1.762165 -0.647891 1.420011
v 1.762165 -0.914093 -1.582440
v 1.762165 -0.647891 -1.582440
v 1.530010 -0.647891 -1.582440
v 1.762165 -0.914093 0.851253
v 1.762165 -0.647891 0.851253
v 1.762165 -0.914093 -1.013682
v 1.762165 -0.647891 -1.013682
v 1.530010 -0.647891 -1.013682
v 1.530010 -0.914093 -1.013682
v 1.530010 -0.647891 0.851253
v 1.530010 -0.914093 0.851253
v 1.762165 -0.914093 1.420011
v 1.530010 -0.914093 1.420011
v 1.530010 -0.914093 -1.582440
v 1.530010 -0.647891 1.420011
v 1.530010 -0.447181 -1.013682
v 1.762165 -0.447181 -1.013682
v 1.530010 -0.447181 -1.582440
v 1.762165 -0.447181 -1.582440
v 1.762165 -0.447181 0.851253
v 1.530010 -0.447181 0.851253
v 1.762165 -0.447181 1.420011
v 1.530010 -0.447181 1.420011
v 1.223583 -0.132849 -1.013682
v 1.223583 0.099307 -1.013682
v 1.223583 -0.132849 -1.582440
v 1.223583 0.099307 -1.582440
v 1.223583 0.099307 0.851253
v 1.223583 -0.132849 0.851253
v 1.223583 0.099307 1.420010
v 1.223583 -0.132849 1.420010
v -0.123563 -0.132849 -1.013682
v -0.123563 0.099307 -1.013682
v -0.123563 -0.132849 -1.582440
v -0.123563 0.099307 -1.582440
v -0.123563 0.099307 0.851253
v -0.123563 -0.132849 0.851253
v -0.123563 0.099307 1.420010
v -0.123563 -0.132849 1.420010
v 1.762165 -1.707836 -1.582440
v 1.530010 -1.707836 -1.582440
v 1.530010 -1.707836 1.420011
v 1.762165 -1.707836 1.420011
v 1.530010 -1.707836 0.851253
v 1.762165 -1.707836 0.851253
v 1.530010 -1.869328 0.851253
v 1.530010 -1.869328 1.420011
v 1.010011 0.099307 1.420010
v 1.010011 -0.132849 1.420010
v 1.010011 -0.132849 0.851253
v 1.010011 0.099307 0.851253
v 0.631435 0.099307 1.420010
v 0.631435 -0.132849 1.420010
v 0.631435 -0.132849 0.851253
v 0.631435 0.099307 0.851253
v 1.010011 -0.132849 -1.582440
v 1.010011 0.099307 -1.582440
v 1.762165 -2.447821 1.420011
v 1.530010 -2.447821 1.420011
v 0.631435 -0.132849 -1.582440
v 0.631435 -0.132849 -1.013682
v 0.631435 0.099307 -1.013682
v 0.631435 0.099307 -1.582440
v 1.010011 -0.132849 -1.013682
v 1.010011 0.099307 -1.013682
v 1.530010 -2.447821 -1.582440
v 1.762165 -2.447821 -1.582440
v 1.530010 -2.447821 0.851253
v 1.762165 -2.447821 0.851253
v 1.762165 -2.447821 -1.013682
v 1.530010 -2.447821 -1.013682
v 1.530010 -1.707836 -1.013682
v 1.762165 -1.707836 -1.013682
v 1.762165 -1.869328 1.420011
v 1.762165 -1.869328 0.851253
v 1.762165 -1.869328 -1.582440
v 1.530010 -1.869328 -1.582440
v 1.530010 -1.869328 -1.013682
v 1.762165 -1.869328 -1.013682
v 1.433745 -1.869328 0.899552
v 1.433745 -1.869328 -1.061981
v 1.858431 -1.869328 0.899552
v 1.858431 -1.869328 -1.061981
v 1.433745 -1.869328 -1.660198
v 1.858431 -1.869328 -1.660198
v 1.858431 -2.447821 -1.061981
v 1.858431 -1.869328 1.497769
v 1.858431 -2.447821 1.497769
v 1.433745 -2.447821 0.899552
v 1.433745 -2.447821 1.497769
v 1.858431 -2.447821 -1.660198
v 1.858431 -2.447821 0.899552
v 1.433745 -2.447821 -1.660198
v 1.433745 -2.447821 -1.061981
v 1.433745 -1.869328 1.497769
v 1.728796 -1.869328 1.962612
v 1.728796 -2.447821 1.962612
v 1.563379 -2.447821 1.962612
v 1.728796 -2.447821 -2.125041
v 1.563379 -2.447821 -2.125041
v 1.563379 -1.869328 -2.125041
v 1.728796 -1.869328 -2.125041
v 1.563379 -1.869328 1.962612
vt 0.293522 0.593908
vt 0.204697 0.589565
vt 0.203236 0.549555
vt 0.078129 0.608335
vt 0.171081 0.602781
vt 0.166616 0.558775
vt 0.370140 0.759111
vt 0.370140 0.711563
vt 0.703248 0.711563
vt 0.331824 0.615465
vt 0.310477 0.647235
vt 0.283701 0.625091
vt 0.703248 0.670096
vt 0.207258 0.595220
vt 0.203857 0.555248
vt 0.703248 0.759111
vt 0.703248 0.800578
vt 0.370140 0.800578
vt 0.171036 0.595632
vt 0.167105 0.551937
vt 0.209690 0.623037
vt 0.285270 0.624154
vt 0.703248 0.848126
vt 0.370140 0.848126
vt 0.196587 0.428061
vt 0.158886 0.430193
vt 0.128625 0.282926
vt 0.052472 0.286985
vt 0.054366 0.187836
vt 0.073983 0.555027
vt 0.295218 0.553417
vt 0.075159 0.632137
vt 0.177610 0.631006
vt 0.167308 0.711720
vt 0.079140 0.638278
vt 0.072506 0.704862
vt 0.171784 0.720209
vt 0.180181 0.639030
vt 0.208048 0.615453
vt 0.295063 0.596830
vt 0.311791 0.642837
vt 0.149453 0.819904
vt 0.128765 0.944999
vt 0.167332 0.951358
vt 0.179855 0.821541
vt 0.156737 0.946568
vt 0.117827 0.939315
vt 0.307599 0.722237
vt 0.282414 0.738124
vt 0.313815 0.717538
vt 0.204108 0.739506
vt 0.276038 0.739330
vt 0.198515 0.731272
vt 0.792505 0.000227
vt 0.894094 0.000227
vt 0.894094 0.041694
vt 0.894094 0.083616
vt 0.792505 0.083616
vt 0.792505 0.042149
vt 0.055267 0.803617
vt 0.034209 0.929136
vt 0.141365 0.813640
vt 0.022699 0.920466
vt 0.313707 0.842432
vt 0.291828 0.969778
vt 0.252670 0.963051
vt 0.282711 0.838776
vt 0.263584 0.966377
vt 0.302821 0.972258
vt 0.187061 0.826641
vt 0.274550 0.835705
vt 0.228309 0.303035
vt 0.221028 0.287600
vt 0.534399 0.286819
vt 0.613477 0.146406
vt 0.525728 0.142788
vt 0.533661 0.127677
vt 0.162838 0.424411
vt 0.200180 0.423464
vt 0.215060 0.031853
vt 0.220924 0.128859
vt 0.127749 0.134162
vt 0.292386 0.421649
vt 0.131163 0.197822
vt 0.222538 0.196087
vt 0.294101 0.550627
vt 0.330109 0.421148
vt 0.070912 0.426688
vt 0.283511 0.771270
vt 0.191916 0.762057
vt 0.320989 0.756715
vt 0.154703 0.750066
vt 0.062285 0.731389
vt 0.199594 0.397377
vt 0.291844 0.395462
vt 0.048281 0.794042
vt 0.070272 0.400595
vt 0.162169 0.398343
vt 0.195197 0.401776
vt 0.157344 0.403902
vt 0.617509 0.297205
vt 0.628124 0.281284
vt 0.636433 0.349683
vt 0.161829 0.757766
vt 0.196931 0.767895
vt 0.528385 0.340115
vt 0.536776 0.355682
vt 0.219021 0.355682
vt 0.361527 0.879341
vt 0.694635 0.879341
vt 0.694635 0.908186
vt 0.135474 0.335062
vt 0.121003 0.349848
vt 0.064699 0.409644
vt 0.370140 0.477254
vt 0.703248 0.477254
vt 0.703248 0.518721
vt 0.229908 0.180869
vt 0.142327 0.183001
vt 0.140430 0.148039
vt 0.370140 0.409634
vt 0.703248 0.409634
vt 0.289575 0.774072
vt 0.333191 0.756422
vt 0.066279 0.740653
vt 0.612329 0.180925
vt 0.370140 0.586341
vt 0.703248 0.586341
vt 0.703248 0.627808
vt 0.370140 0.518721
vt 0.361527 0.908186
vt 0.694635 0.949653
vt 0.066335 0.435948
vt 0.289252 0.423588
vt 0.333191 0.551672
vt 0.327225 0.421843
vt 0.361527 0.949653
vt 0.694635 0.978498
vt 0.625901 0.132468
vt 0.623448 0.195328
vt 0.287966 0.397247
vt 0.229016 0.143977
vt 0.525345 0.179518
vt 0.532825 0.194600
vt 0.527147 0.302405
vt 0.539022 0.033695
vt 0.047561 0.314490
vt 0.639498 0.041458
vt 0.227283 0.340243
vt 0.139131 0.298414
vt 0.621656 0.334745
vt 0.708038 0.282356
vt 0.699881 0.181400
vt 0.728749 0.179067
vt 0.024121 0.286444
vt 0.026015 0.187295
vt 0.700284 0.152895
vt 0.714867 0.310922
vt 0.050962 0.159243
vt 0.027209 0.059139
vt 0.719257 0.057285
vt 0.074932 0.565293
vt 0.370140 0.670096
vt 0.074804 0.598519
vt 0.068649 0.698861
vt 0.327398 0.614883
vt 0.792505 0.041694
vt 0.894094 0.042149
vt 0.321947 0.844657
vt 0.111966 0.041648
vt 0.331825 0.550126
vt 0.370140 0.627808
vt 0.361527 0.978498
vt 0.736906 0.280024
vn 0.904500 0.301500 -0.301500
vn 0.707100 0.000000 0.707100
vn -0.904500 0.301500 0.301500
vn -0.707100 0.000000 -0.707100
vn 0.904500 -0.301500 -0.301500
vn 0.904500 -0.301500 0.301500
vn -0.904500 0.301500 -0.301500
vn -0.552600 -0.224800 -0.802500
vn 0.717900 0.294300 -0.630800
vn -0.904500 -0.301500 0.301500
vn 0.707100 0.000000 -0.707100
vn 0.904500 0.301500 0.301500
vn -0.707100 0.000000 0.707100
vn 0.717900 0.294300 0.630800
vn -0.904500 -0.301500 -0.301500
vn 0.728400 0.677800 0.099600
vn 0.486900 0.593000 0.641300
vn 0.486900 -0.593000 0.641300
vn -0.552600 -0.224800 0.802500
vn -0.230000 -0.545600 0.805800
vn -0.230000 -0.545600 -0.805800
vn 0.000000 -0.707100 -0.707100
vn -0.577300 -0.577300 -0.577300
vn -0.577300 0.577300 -0.577300
vn 0.000000 0.707100 0.707100
vn -0.577300 0.577300 0.577300
vn -0.577300 -0.577300 0.577300
vn 0.299900 0.716600 0.629700
vn 0.299900 0.716600 -0.629700
vn -0.301500 -0.904500 0.301500
vn 0.000000 -0.707100 0.707100
vn -0.301500 -0.904500 -0.301500
vn -0.301500 0.904500 0.301500
vn 0.000000 0.707100 -0.707100
vn -0.301500 0.904500 -0.301500
vn 0.707100 0.707100 0.000000
vn 0.000000 -1.000000 0.000000
vn -0.707100 -0.707100 0.000000
vn -0.707100 0.707100 0.000000
vn -0.728400 -0.677800 0.099600
vn 0.728400 -0.677800 0.099600
vn 0.707100 -0.707100 0.000000
vn 0.301500 0.904500 -0.301500
vn 0.301500 -0.904500 -0.301500
vn 0.301500 0.904500 0.301500
vn 0.728400 0.677800 -0.099600
vn -0.728400 0.677800 -0.099600
vn -0.728400 0.677800 0.099600
vn 0.301500 -0.904500 0.301500
vn -0.728400 -0.677800 -0.099600
vn 0.728400 -0.677800 -0.099600
vn -0.486900 0.593000 0.641300
vn 0.486900 0.593000 -0.641300
vn 0.486900 -0.593000 -0.641300
vn -0.486900 -0.593000 -0.641300
vn -0.486900 -0.593000 0.641300
vn -0.486900 0.593000 -0.641300
s 1
f 6/1/1 1/2/2 13/3/2
f 9/4/3 4/5/4 15/6/4
f 6/7/1 5/8/5 7/9/6
f 11/10/7 22/11/8 21/12/9
f 10/13/10 7/9/6 5/8/5
f 3/14/11 2/15/11 15/6/4
f 8/16/12 9/17/3 11/18/7
f 16/19/13 14/20/13 13/3/2
f 3/14/11 20/21/9 18/22/14
f 9/17/3 10/23/10 12/24/15
f 2/15/11 41/25/11 42/26/4
f 88/27/16 97/28/17 98/29/18
f 12/30/15 14/20/13 16/19/13
f 7/31/6 2/15/11 3/14/11
f 22/32/8 24/33/19 32/34/20
f 17/35/19 25/36/20 27/37/21
f 4/5/4 19/38/8 20/21/9
f 6/1/1 21/12/9 23/39/14
f 8/40/12 18/22/14 17/41/19
f 1/2/2 23/39/14 24/33/19
f 9/4/3 17/35/19 19/38/8
f 16/19/13 24/33/19 22/32/8
f 61/42/22 35/43/23 36/44/24
f 53/45/25 39/46/26 40/47/27
f 21/12/9 22/11/8 30/48/21
f 18/22/14 26/49/28 25/50/20
f 20/21/9 28/51/29 26/49/28
f 21/12/9 29/52/29 31/53/28
f 23/39/14 31/53/28 32/34/20
f 20/21/9 19/38/8 27/37/21
f 34/54/26 36/55/24 35/56/23
f 38/57/23 40/58/27 39/59/26
f 62/60/30 33/61/27 35/43/23
f 54/62/31 40/47/27 38/63/23
f 55/64/32 38/65/23 37/66/24
f 63/67/33 34/68/26 33/69/27
f 64/70/34 36/44/24 34/68/26
f 56/71/35 37/66/24 39/46/26
f 76/72/36 83/73/36 84/74/36
f 67/75/37 72/76/37 95/77/38
f 14/20/13 43/78/13 44/79/2
f 81/80/39 90/81/38 91/82/40
f 13/3/2 44/79/2 46/83/1
f 88/27/16 89/84/41 93/85/42
f 5/86/5 46/83/1 45/87/7
f 12/30/15 45/88/7 43/78/13
f 29/52/29 52/89/43 49/90/25
f 30/48/21 51/91/44 52/89/43
f 32/34/20 50/92/31 51/93/44
f 31/53/28 49/90/25 50/92/31
f 52/89/43 56/71/35 53/45/25
f 44/79/2 75/94/45 76/95/36
f 50/92/31 54/62/31 55/96/32
f 50/92/31 49/90/25 53/45/25
f 45/88/7 47/97/39 48/98/33
f 41/25/11 77/99/43 78/100/35
f 77/101/43 86/102/46 85/103/47
f 27/37/21 57/104/22 58/105/34
f 43/78/13 48/98/33 75/94/45
f 79/106/39 82/107/39 81/108/39
f 76/109/36 80/110/36 74/111/12
f 57/104/22 61/42/22 64/70/34
f 48/112/33 96/113/48 88/27/16
f 42/26/4 78/100/35 79/114/39
f 51/115/44 65/116/49 66/117/45
f 70/118/37 59/119/37 60/120/37
f 55/121/32 62/122/30 65/116/49
f 28/51/29 58/105/34 66/123/45
f 26/49/28 66/123/45 65/124/49
f 25/36/20 65/125/49 57/104/22
f 58/105/34 64/70/34 63/67/33
f 72/76/37 67/75/37 68/126/37
f 65/125/49 62/60/30 61/42/22
f 56/127/35 63/128/33 62/129/30
f 52/130/43 66/117/45 63/128/33
f 46/131/1 74/111/12 73/132/3
f 15/6/4 42/26/4 73/133/3
f 7/31/6 74/134/12 41/25/11
f 10/135/10 73/136/3 74/134/12
f 45/137/7 73/132/3 79/138/39
f 67/75/37 94/139/50 92/140/51
f 74/134/12 80/141/36 77/99/43
f 69/142/37 72/76/37 71/143/37
f 71/143/37 87/144/42 93/85/42
f 77/101/43 80/145/36 84/74/36
f 81/80/39 82/146/39 95/77/38
f 96/113/48 104/147/52 97/28/17
f 93/85/42 87/144/42 84/74/36
f 85/148/47 94/139/50 95/77/38
f 84/74/36 87/144/42 92/140/51
f 68/126/37 92/140/51 87/144/42
f 48/112/33 47/149/39 81/108/39
f 59/119/37 70/118/37 93/85/42
f 75/150/45 88/27/16 83/73/36
f 78/151/35 85/103/47 82/107/39
f 59/119/37 89/84/41 91/82/40
f 69/142/37 90/81/38 95/77/38
f 60/120/37 91/82/40 90/81/38
f 103/152/53 100/153/54 101/154/55
f 104/155/52 99/156/56 98/29/18
f 92/140/51 100/153/54 103/152/53
f 94/139/50 101/157/55 100/153/54
f 86/102/46 103/152/53 102/158/57
f 91/82/40 99/159/56 104/160/52
f 85/148/47 102/161/57 101/157/55
f 89/84/41 98/29/18 99/159/56
f 5/86/5 6/1/1 13/3/2
f 10/162/10 9/4/3 15/6/4
f 8/16/12 6/7/1 7/9/6
f 6/1/1 11/10/7 21/12/9
f 12/163/15 10/13/10 5/8/5
f 4/5/4 3/14/11 15/6/4
f 6/7/1 8/16/12 11/18/7
f 1/2/2 16/19/13 13/3/2
f 8/40/12 3/14/11 18/22/14
f 11/18/7 9/17/3 12/24/15
f 15/6/4 2/15/11 42/26/4
f 89/84/41 88/27/16 98/29/18
f 11/164/7 12/30/15 16/19/13
f 8/40/12 7/31/6 3/14/11
f 30/165/21 22/32/8 32/34/20
f 19/38/8 17/35/19 27/37/21
f 3/14/11 4/5/4 20/21/9
f 1/2/2 6/1/1 23/39/14
f 9/166/3 8/40/12 17/41/19
f 16/19/13 1/2/2 24/33/19
f 4/5/4 9/4/3 19/38/8
f 11/164/7 16/19/13 22/32/8
f 64/70/34 61/42/22 36/44/24
f 54/62/31 53/45/25 40/47/27
f 29/52/29 21/12/9 30/48/21
f 17/41/19 18/22/14 25/50/20
f 18/22/14 20/21/9 26/49/28
f 23/39/14 21/12/9 31/53/28
f 24/33/19 23/39/14 32/34/20
f 28/51/29 20/21/9 27/37/21
f 33/167/27 34/54/26 35/56/23
f 37/168/24 38/57/23 39/59/26
f 61/42/22 62/60/30 35/43/23
f 55/96/32 54/62/31 38/63/23
f 56/71/35 55/64/32 37/66/24
f 62/169/30 63/67/33 33/69/27
f 63/67/33 64/70/34 34/68/26
f 53/45/25 56/71/35 39/46/26
f 80/145/36 76/72/36 84/74/36
f 94/139/50 67/75/37 95/77/38
f 13/3/2 14/20/13 44/79/2
f 96/170/48 81/80/39 91/82/40
f 5/86/5 13/3/2 46/83/1
f 83/73/36 88/27/16 93/85/42
f 12/171/15 5/86/5 45/87/7
f 14/20/13 12/30/15 43/78/13
f 31/53/28 29/52/29 49/90/25
f 29/52/29 30/48/21 52/89/43
f 30/165/21 32/34/20 51/93/44
f 32/34/20 31/53/28 50/92/31
f 49/90/25 52/89/43 53/45/25
f 46/83/1 44/79/2 76/95/36
f 51/93/44 50/92/31 55/96/32
f 54/62/31 50/92/31 53/45/25
f 43/78/13 45/88/7 48/98/33
f 42/26/4 41/25/11 78/100/35
f 78/151/35 77/101/43 85/103/47
f 28/51/29 27/37/21 58/105/34
f 44/79/2 43/78/13 75/94/45
f 47/149/39 79/106/39 81/108/39
f 46/131/1 76/109/36 74/111/12
f 58/105/34 57/104/22 64/70/34
f 75/150/45 48/112/33 88/27/16
f 73/133/3 42/26/4 79/114/39
f 52/130/43 51/115/44 66/117/45
f 69/142/37 70/118/37 60/120/37
f 51/115/44 55/121/32 65/116/49
f 26/49/28 28/51/29 66/123/45
f 25/50/20 26/49/28 65/124/49
f 27/37/21 25/36/20 57/104/22
f 66/123/45 58/105/34 63/67/33
f 71/143/37 72/76/37 68/126/37
f 57/104/22 65/125/49 61/42/22
f 55/172/32 56/127/35 62/129/30
f 56/127/35 52/130/43 63/128/33
f 45/137/7 46/131/1 73/132/3
f 10/162/10 15/6/4 73/133/3
f 2/15/11 7/31/6 41/25/11
f 7/31/6 10/135/10 74/134/12
f 47/173/39 45/137/7 79/138/39
f 68/126/37 67/75/37 92/140/51
f 41/25/11 74/134/12 77/99/43
f 70/118/37 69/142/37 71/143/37
f 70/118/37 71/143/37 93/85/42
f 86/102/46 77/101/43 84/74/36
f 90/81/38 81/80/39 95/77/38
f 88/27/16 96/113/48 97/28/17
f 83/73/36 93/85/42 84/74/36
f 82/146/39 85/148/47 95/77/38
f 86/102/46 84/74/36 92/140/51
f 71/143/37 68/126/37 87/144/42
f 96/113/48 48/112/33 81/108/39
f 89/84/41 59/119/37 93/85/42
f 76/72/36 75/150/45 83/73/36
f 79/106/39 78/151/35 82/107/39
f 60/120/37 59/119/37 91/82/40
f 72/76/37 69/142/37 95/77/38
f 69/142/37 60/120/37 90/81/38
f 102/174/57 103/152/53 101/154/55
f 97/28/17 104/155/52 98/29/18
f 86/102/46 92/140/51 103/152/53
f 92/140/51 94/139/50 100/153/54
f 85/103/47 86/102/46 102/158/57
f 96/170/48 91/82/40 104/160/52
f 94/139/50 85/148/47 101/157/55
f 91/82/40 89/84/41 99/159/56
