# Blender v2.75 (sub 0) OBJ File: 'TransportOffset.blend'
# www.blender.org
o Cube
v 1.261107 0.503519 -0.339965
v 1.261107 0.211032 2.047761
v 1.002120 2.733246 2.765170
v 1.261107 1.156603 3.506929
v 1.261107 0.663539 3.506929
v 1.261107 0.211032 3.054422
v 1.261107 0.503519 1.500473
v 1.261108 1.744559 -0.339963
v 1.002120 2.733246 -0.121966
v 1.261107 0.211032 2.830211
v 1.261107 1.172907 -0.339964
v 1.261107 0.655338 2.830211
v 1.261107 1.172906 2.312643
v 1.425715 0.211032 2.047761
v 1.425715 0.503519 1.500473
v 1.425715 0.211032 2.830211
v 1.425715 0.503519 -0.339965
v 1.425716 1.030028 -0.339964
v 1.425716 0.512460 2.830211
v 1.425716 1.030028 2.312643
v 0.796597 0.211032 2.047761
v 0.796597 0.503519 1.500473
v 0.796597 0.503519 -0.339965
v 0.796597 -0.419808 1.428592
v 0.796597 -0.712296 1.975880
v 0.796597 -0.419808 -0.411846
v 0.796597 0.211031 2.883905
v 0.796597 -0.712297 2.812024
v 0.796596 1.744559 -0.339964
v 0.796596 1.744559 -2.580732
v 0.796597 0.503519 -2.580733
v 0.676852 2.187129 -0.242378
v 0.676852 2.187129 -2.580730
v 0.796596 1.744559 -1.313066
v 0.796597 0.309939 -2.580733
v 0.745784 1.932358 -2.580731
v 0.796597 0.503519 -1.313067
v 1.312383 0.309939 -3.532166
v 1.312383 0.503519 -3.532166
v 1.312382 1.744559 -3.532166
v 0.745785 1.932358 -1.262229
v 0.796597 0.309941 -1.313072
v 1.312382 1.744559 -2.264500
v 1.261570 1.932358 -3.532165
v 1.312383 0.503519 -2.264500
v 1.261570 1.932358 -2.213663
v 1.312383 0.309941 -2.264506
v 0.796597 -0.073020 2.861792
v 0.796597 -0.712296 2.304441
v 1.130502 -0.073020 2.638041
v 1.130501 -0.073020 3.195388
v 1.130501 -0.712296 2.638037
v 1.130500 -0.712297 3.145620
v 0.796598 -0.073020 2.304445
v 0.563203 -0.712296 1.975880
v 0.436452 -0.419808 1.975880
v 0.563203 -0.419808 1.428592
v 0.436452 -0.419808 1.428592
v 0.436452 -0.419809 3.145620
v 0.563203 -0.712296 3.145620
v 0.436452 -0.419809 2.812024
v 0.563203 -0.712296 2.812024
v 0.796597 -0.419808 -2.009758
v 0.796597 0.151167 -2.580733
v 0.796597 -0.252573 -2.413498
v -1.261107 0.503519 -0.339965
v -1.261107 0.211032 2.047761
v -1.002120 2.733246 2.765170
v -1.261107 1.156603 3.506929
v -1.261107 0.663539 3.506929
v -1.261107 0.211032 3.054422
v -1.261107 0.503519 1.500473
v 0.000000 2.733246 2.765169
v 0.000000 1.156603 3.506928
v 0.000000 0.663539 3.506928
v 0.000000 0.211032 3.054421
v -1.261108 1.744559 -0.339963
v -1.002120 2.733246 -0.121966
v 0.000000 2.733246 -0.121966
v -1.261107 0.211032 2.830211
v -1.261107 1.172907 -0.339964
v -1.261107 0.655338 2.830211
v -1.261107 1.172906 2.312643
v -1.425715 0.211032 2.047761
v -1.425715 0.503519 1.500473
v -1.425715 0.211032 2.830211
v -1.425715 0.503519 -0.339965
v -1.425716 1.030028 -0.339964
v -1.425716 0.512460 2.830211
v -1.425716 1.030028 2.312643
v -0.796597 0.211032 2.047761
v -0.796597 0.503519 1.500473
v 0.000000 0.211032 2.883905
v -0.796597 0.503519 -0.339965
v 0.000000 -0.419808 2.812024
v 0.000000 -0.419808 1.428591
v -0.796597 -0.419808 1.428592
v 0.000000 -0.419808 1.975880
v -0.796597 -0.712296 1.975880
v 0.000000 -0.419808 -0.411846
v -0.796597 -0.419808 -0.411846
v -0.796597 0.211031 2.883905
v -0.796597 -0.712297 2.812024
v -0.796596 1.744559 -0.339964
v 0.000000 2.187130 -0.242381
v 0.000000 1.744559 -2.580732
v -0.796596 1.744559 -2.580732
v 0.000000 0.503519 -2.580733
v -0.796597 0.503519 -2.580733
v -0.676852 2.187129 -0.242378
v 0.000000 2.187130 -2.580732
v -0.676852 2.187129 -2.580730
v 0.000000 1.932358 -2.580732
v -0.796596 1.744559 -1.313066
v -0.796597 0.309939 -2.580733
v -0.745784 1.932358 -2.580731
v 0.000000 0.309939 -2.580733
v -0.796597 0.503519 -1.313067
v -1.312383 0.309939 -3.532166
v -1.312383 0.503519 -3.532166
v -1.312382 1.744559 -3.532166
v 0.000000 1.744559 -3.532166
v 0.000000 0.503519 -3.532167
v 0.000000 1.932358 -3.532166
v -0.745785 1.932358 -1.262229
v -0.796597 0.309941 -1.313072
v -1.312382 1.744559 -2.264500
v -1.261570 1.932358 -3.532165
v 0.000000 0.309939 -3.532167
v -1.312383 0.503519 -2.264500
v -1.261570 1.932358 -2.213663
v -1.312383 0.309941 -2.264506
v -0.796597 -0.073020 2.861792
v 0.000000 -0.073021 2.861792
v -0.796597 -0.712296 2.304441
v -1.130502 -0.073020 2.638041
v -1.130501 -0.073020 3.195388
v 0.000000 -0.073021 3.195387
v -1.130501 -0.712296 2.638037
v -1.130500 -0.712297 3.145620
v 0.000000 -0.419808 3.145620
v -0.796598 -0.073020 2.304445
v -0.563203 -0.712296 1.975880
v -0.436452 -0.419808 1.975880
v -0.563203 -0.419808 1.428592
v -0.436452 -0.419808 1.428592
v -0.436452 -0.419809 3.145620
v -0.563203 -0.712296 3.145620
v -0.436452 -0.419809 2.812024
v -0.563203 -0.712296 2.812024
v -0.796597 -0.419808 -2.009758
v -0.796597 0.151167 -2.580733
v -0.796597 -0.252573 -2.413498
v 0.000000 0.151167 -2.580733
v 0.000000 -0.419808 -2.009758
v 0.000000 -0.252573 -2.413498
vt 0.441672 0.357479
vt 0.441178 0.458184
vt 0.151045 0.456760
vt 0.752362 0.566537
vt 0.752362 0.739856
vt 0.665410 0.733087
vt 0.012751 0.393770
vt 0.012751 0.336728
vt 0.125161 0.336727
vt 0.769336 0.817987
vt 0.794804 0.769317
vt 0.847302 0.803071
vt 0.102076 0.593032
vt 0.012751 0.593032
vt 0.012751 0.437719
vt 0.604662 0.989944
vt 0.605076 0.972645
vt 0.660194 0.965626
vt 0.125161 0.437719
vt 0.752362 0.474898
vt 0.869234 0.474898
vt 0.095905 0.226253
vt 0.162143 0.363768
vt 0.662940 0.945081
vt 0.357931 0.944747
vt 0.360749 0.873771
vt 0.373714 0.894444
vt 0.676593 0.929945
vt 0.621904 0.897276
vt 0.375205 0.932057
vt 0.543118 0.957160
vt 0.539629 0.974503
vt 0.626293 0.873771
vt 0.674105 0.975098
vt 0.273925 0.131171
vt 0.213814 0.131171
vt 0.213814 0.075343
vt 0.452204 0.131171
vt 0.273925 0.075343
vt 0.138020 0.131171
vt 0.118882 0.134512
vt 0.134155 0.075343
vt 0.665410 0.559768
vt 0.643431 0.733087
vt 0.631495 0.863368
vt 0.590393 0.863368
vt 0.590393 0.784626
vt 0.631494 0.733087
vt 0.631494 0.784626
vt 0.724818 0.791395
vt 0.637866 0.784626
vt 0.879420 0.817180
vt 0.835163 0.847697
vt 0.457658 0.260686
vt 0.457658 0.216007
vt 0.497811 0.260686
vt 0.976151 0.331526
vt 0.976151 0.355518
vt 0.912410 0.355519
vt 0.497811 0.302784
vt 0.968278 0.157559
vt 0.968279 0.274430
vt 0.893261 0.274430
vt 0.590392 0.559768
vt 0.590392 0.409289
vt 0.665410 0.409289
vt 0.912410 0.575727
vt 0.887555 0.479685
vt 0.734132 0.474897
vt 0.681159 0.371268
vt 0.976151 0.575727
vt 0.764838 0.338054
vt 0.864733 0.296216
vt 0.852111 0.421830
vt 0.652687 0.138537
vt 0.750014 0.146095
vt 0.749941 0.163300
vt 0.597750 0.098546
vt 0.514989 0.098546
vt 0.562819 0.010316
vt 0.883940 0.134639
vt 0.864758 0.136373
vt 0.852999 0.006327
vt 0.765858 0.093788
vt 0.758720 0.014852
vt 0.870810 0.423709
vt 0.866154 0.155774
vt 0.866322 0.277555
vt 0.743735 0.284996
vt 0.748867 0.268028
vt 0.648361 0.295625
vt 0.597750 0.193450
vt 0.626782 0.247004
vt 0.562819 0.281679
vt 0.514989 0.193450
vt 0.653024 0.276767
vt 0.651340 0.156566
vt 0.718995 0.944928
vt 0.692245 0.942845
vt 0.698068 0.868054
vt 0.829925 0.721864
vt 0.906081 0.690526
vt 0.920608 0.721007
vt 0.698068 0.815568
vt 0.881218 0.766386
vt 0.944285 0.902710
vt 0.915000 0.864253
vt 0.944394 0.841870
vt 0.826329 0.671998
vt 0.881518 0.608171
vt 0.908248 0.631283
vt 0.785268 0.683251
vt 0.806910 0.869810
vt 0.823116 0.888008
vt 0.894356 0.836662
vt 0.922874 0.813968
vt 0.759811 0.916997
vt 0.840825 0.916624
vt 0.787743 0.944568
vt 0.777559 0.934712
vt 0.590392 0.368135
vt 0.665410 0.368135
vt 0.590393 0.326981
vt 0.665410 0.312029
vt 0.665410 0.326981
vt 0.869234 0.566537
vt 0.457658 0.147733
vt 0.497811 0.147733
vt 0.555540 0.357479
vt 0.555540 0.302784
vt 0.156750 0.183094
vt 0.089071 0.188803
vt 0.210701 0.216795
vt 0.116302 0.001823
vt 0.936319 0.655555
vt 0.724818 0.870137
vt 0.590393 0.733087
vt 0.719180 0.355519
vt 0.194326 0.756126
vt 0.473856 0.762415
vt 0.484954 0.855406
vt 0.034741 0.963166
vt 0.089859 0.970184
vt 0.090273 0.987483
vt 0.540093 0.624900
vt 0.031996 0.942620
vt 0.337005 0.942286
vt 0.319731 0.929596
vt 0.321221 0.891983
vt 0.073032 0.894816
vt 0.018343 0.927484
vt 0.151817 0.954700
vt 0.155307 0.972043
vt 0.068643 0.871311
vt 0.020830 0.972637
vt 0.362073 0.529818
vt 0.362073 0.473990
vt 0.422184 0.473990
vt 0.183795 0.529818
vt 0.183795 0.473990
vt 0.497978 0.529818
vt 0.501843 0.473990
vt 0.178340 0.659333
vt 0.138187 0.659333
vt 0.178340 0.614654
vt 0.080458 0.756126
vt 0.138187 0.701431
vt 0.893261 0.157559
vt 0.887555 0.355519
vt 0.637866 0.815567
vt 0.973678 0.880327
vt 0.138187 0.546379
vt 0.178340 0.546379
vt 0.080458 0.701431
vt 0.479249 0.581741
vt 0.517117 0.533158
vt 0.546927 0.587450
vt 0.425297 0.615442
vt 0.501843 0.400469
vt 0.519697 0.400469
vt 0.422184 0.529818
vt 0.125161 0.393770
vt 0.452204 0.075343
vt 0.905918 0.331526
vt 0.757377 0.412311
vt 0.626782 0.044992
vt 0.872181 0.004593
vt 0.883940 0.293035
vt 0.781672 0.633385
vt 0.590392 0.312029
vt 0.134155 0.001823
vt 0.734132 0.355519
vt 0.194821 0.856831
vt 0.334187 0.871311
vn 0.512900 0.693400 -0.506100
vn 0.000000 0.779500 -0.626400
vn 0.000000 0.844300 0.535800
vn 0.904500 -0.301500 -0.301500
vn 0.656300 -0.731900 -0.183300
vn 0.766100 -0.623500 -0.156100
vn 0.000000 -0.382700 0.923900
vn 0.000000 -0.923900 0.382700
vn 0.630200 -0.717300 0.297100
vn 0.973700 0.131400 -0.185800
vn 0.717200 0.630200 -0.297300
vn 0.717200 -0.630200 -0.297300
vn 0.543900 0.722100 0.427400
vn 0.000000 0.218100 0.975900
vn 0.000000 -0.970000 -0.242900
vn 0.577300 -0.577300 0.577300
vn 0.672000 0.197200 0.713800
vn 0.969300 0.000000 0.245800
vn 0.958800 0.089600 0.269500
vn 0.696500 0.156200 0.700300
vn 0.000000 -0.707100 -0.707100
vn 0.529200 0.241400 -0.813400
vn 0.710500 0.324100 -0.624500
vn 0.899300 0.222400 0.376400
vn 0.853700 0.463900 0.236800
vn 0.577300 -0.577300 -0.577300
vn 0.912400 0.393200 0.113400
vn 0.301500 -0.904500 0.301500
vn 0.281900 -0.912700 0.295700
vn 0.707100 -0.707100 0.000000
vn -0.548800 -0.835900 0.000000
vn 0.000000 -1.000000 0.000000
vn -0.078200 -0.991400 -0.104400
vn 0.549000 -0.804200 -0.227500
vn 0.709500 0.163700 -0.685400
vn 0.688500 0.179800 -0.702600
vn 0.000000 0.707100 -0.707100
vn 0.489600 0.639700 -0.592500
vn 0.244100 0.536100 -0.808100
vn -0.406100 -0.608100 -0.682100
vn -0.406100 0.608100 -0.682100
vn 0.000000 -0.980800 -0.195100
vn 0.665700 -0.731900 -0.145600
vn 0.945900 0.310800 0.093300
vn 0.989300 -0.080600 0.121500
vn 0.630200 -0.549000 -0.549000
vn 0.275700 0.931400 -0.237600
vn 0.731800 -0.655700 0.185600
vn 0.567200 0.346000 -0.747300
vn 0.301500 -0.904500 -0.301500
vn 0.619900 -0.241200 -0.746700
vn 0.663600 0.719400 0.204800
vn 0.969500 0.102100 0.222500
vn 0.000000 -0.734000 0.679100
vn 0.000000 0.679100 0.734000
vn 0.321800 0.896100 0.305700
vn 0.569000 0.556500 0.605400
vn -0.293400 -0.499600 0.815000
vn -0.446100 -0.677400 0.584900
vn 0.581500 -0.597100 0.552400
vn 0.000000 0.655000 0.755600
vn -0.491000 -0.854200 -0.171000
vn 0.000000 -0.195100 -0.980800
vn 0.665700 -0.145600 -0.731900
vn 0.630200 -0.297100 0.717300
vn 0.000000 -0.755600 0.655000
vn -0.512900 0.693400 -0.506100
vn -0.543900 0.722100 0.427400
vn -0.904500 -0.301500 -0.301500
vn -0.707100 -0.707100 0.000000
vn -0.766100 -0.623500 -0.156100
vn -0.630200 -0.717300 0.297100
vn -0.717200 -0.630200 -0.297300
vn -0.717200 0.630200 -0.297300
vn -0.973700 0.131400 -0.185800
vn -0.672000 0.197200 0.713800
vn -0.577300 -0.577300 0.577300
vn -0.656300 -0.731900 -0.183300
vn -0.958800 0.089600 0.269500
vn -0.969300 0.000000 0.245800
vn -0.696500 0.156200 0.700300
vn -0.577300 -0.577300 -0.577300
vn -0.710500 0.324100 -0.624500
vn -0.853700 0.463900 0.236800
vn -0.899300 0.222400 0.376400
vn -0.912400 0.393200 0.113400
vn -0.301500 -0.904500 0.301500
vn -0.281900 -0.912700 0.295700
vn 0.548800 -0.835900 0.000000
vn 0.078200 -0.991400 -0.104400
vn -0.581500 -0.597100 0.552400
vn -0.709500 0.163700 -0.685400
vn -0.688500 0.179800 -0.702600
vn -0.529200 0.241400 -0.813400
vn -0.489600 0.639700 -0.592500
vn -0.244100 0.536100 -0.808100
vn 0.406100 -0.608100 -0.682100
vn -0.665700 -0.731900 -0.145600
vn -0.275700 0.931400 -0.237600
vn -0.945900 0.310800 0.093300
vn -0.989300 -0.080600 0.121500
vn -0.630200 -0.549000 -0.549000
vn -0.731800 -0.655700 0.185600
vn -0.567200 0.346000 -0.747300
vn 0.406100 0.608100 -0.682100
vn -0.301500 -0.904500 -0.301500
vn -0.619900 -0.241200 -0.746700
vn -0.969500 0.102100 0.222500
vn -0.663600 0.719400 0.204800
vn -0.321800 0.896100 0.305700
vn -0.569000 0.556500 0.605400
vn 0.446100 -0.677400 0.584900
vn 0.293400 -0.499600 0.815000
vn -0.549000 -0.804200 -0.227500
vn 0.491000 -0.854200 -0.171000
vn -0.665700 -0.145600 -0.731900
vn -0.630200 -0.297100 0.717300
s 1
f 9/1/1 79/2/2 73/3/3
f 23/4/4 22/5/5 24/6/6
f 75/7/7 76/8/8 6/9/9
f 54/10/10 50/11/11 52/12/12
f 3/13/13 73/14/3 74/15/14
f 2/16/15 14/17/5 16/18/16
f 4/19/17 74/15/14 75/7/7
f 23/4/4 37/20/18 34/21/19
f 4/22/17 9/1/1 3/23/13
f 14/17/5 19/24/20 16/18/16
f 1/25/21 11/26/22 18/27/23
f 12/28/24 19/24/20 20/29/25
f 1/25/21 17/30/26 15/31/6
f 7/32/15 15/31/6 14/17/5
f 13/33/27 20/29/25 18/27/23
f 10/34/28 16/18/16 19/24/20
f 7/35/15 2/36/15 21/37/6
f 1/38/21 7/35/15 22/39/5
f 10/40/28 6/41/9 27/42/29
f 26/43/30 24/6/6 57/44/15
f 61/45/31 95/46/32 98/47/32
f 58/48/33 56/49/31 98/47/32
f 21/50/6 25/51/5 24/6/6
f 28/52/32 49/53/34 52/12/12
f 8/54/35 11/55/22 29/56/36
f 113/57/37 111/58/37 33/59/38
f 9/1/1 8/54/35 32/60/39
f 30/61/40 31/62/41 108/63/37
f 100/64/32 155/65/42 63/66/43
f 33/59/38 32/67/39 41/68/44
f 42/69/45 63/66/43 65/70/46
f 105/71/2 32/67/39 33/59/38
f 36/72/47 44/73/38 124/74/37
f 42/75/45 47/76/48 45/77/18
f 31/78/41 39/79/49 123/80/37
f 39/81/49 38/82/26 129/83/21
f 35/84/50 117/85/21 129/83/21
f 122/86/21 124/74/37 44/73/38
f 45/77/18 39/87/49 40/88/51
f 44/73/38 46/89/52 43/90/53
f 47/76/48 38/82/26 39/87/49
f 36/72/47 41/91/44 46/89/52
f 35/84/50 38/82/26 47/76/48
f 30/92/40 106/93/21 122/94/21
f 31/78/41 30/92/40 40/95/51
f 34/96/19 43/90/53 46/89/52
f 37/97/18 45/77/18 43/90/53
f 93/98/54 134/99/55 48/100/56
f 51/101/57 59/102/58 60/103/59
f 25/51/5 21/50/6 54/104/10
f 50/11/11 51/101/57 53/105/60
f 95/106/32 61/107/31 59/108/58
f 48/109/56 134/110/55 138/111/61
f 48/109/56 51/101/57 50/112/11
f 25/113/5 49/53/34 55/114/62
f 55/114/62 62/115/31 61/107/31
f 28/52/32 53/105/60 60/116/59
f 61/107/31 62/115/31 60/116/59
f 24/117/6 25/113/5 55/114/62
f 55/114/62 56/118/31 58/119/33
f 57/120/15 55/114/62 58/119/33
f 155/65/42 156/121/21 65/122/46
f 65/122/46 156/121/21 154/123/63
f 35/124/50 64/125/64 154/123/63
f 29/126/36 34/21/19 41/68/44
f 11/55/22 1/127/21 23/128/4
f 29/56/36 11/55/22 23/128/4
f 79/129/2 32/60/39 105/130/2
f 8/54/35 29/56/36 32/60/39
f 12/131/24 5/132/65 6/41/9
f 4/22/17 5/132/65 12/131/24
f 9/1/1 4/22/17 13/133/27
f 15/31/6 20/29/25 14/17/5
f 14/17/5 20/29/25 19/24/20
f 17/30/26 18/27/23 15/31/6
f 18/27/23 20/29/25 15/31/6
f 27/42/29 6/41/9 76/134/8
f 138/111/61 141/135/66 59/102/58
f 53/105/60 51/101/57 60/103/59
f 49/53/34 28/52/32 62/115/31
f 55/114/62 49/53/34 62/115/31
f 27/136/29 48/100/56 54/104/10
f 100/64/32 57/44/15 58/48/33
f 100/64/32 26/43/30 57/44/15
f 96/137/32 100/64/32 58/48/33
f 23/4/4 26/43/30 42/69/45
f 42/69/45 65/70/46 64/138/64
f 26/43/30 63/66/43 42/69/45
f 11/55/22 8/54/35 13/133/27
f 2/36/15 10/40/28 21/37/6
f 78/139/67 68/140/68 73/141/3
f 94/4/69 101/43/70 97/6/71
f 71/9/72 76/8/8 75/7/7
f 139/12/73 136/11/74 142/10/75
f 68/13/68 69/19/76 74/15/14
f 86/142/77 84/143/78 67/144/15
f 75/7/7 74/15/14 69/19/76
f 114/21/79 118/20/80 94/4/69
f 69/145/76 68/140/68 78/139/67
f 84/143/78 86/142/77 89/146/81
f 66/147/21 87/148/82 88/149/83
f 90/150/84 89/146/81 82/151/85
f 85/152/71 87/148/82 66/147/21
f 84/143/78 85/152/71 72/153/15
f 88/149/83 90/150/84 83/154/86
f 89/146/81 86/142/77 80/155/87
f 72/156/15 92/157/78 91/158/71
f 66/159/21 94/160/69 92/157/78
f 80/161/87 91/158/71 102/162/88
f 101/43/70 145/44/15 97/6/71
f 144/49/89 98/47/32 95/46/32
f 146/48/90 96/137/32 98/47/32
f 97/6/71 99/51/78 91/50/71
f 103/52/32 140/105/91 139/12/73
f 77/163/92 104/164/93 81/165/94
f 112/59/95 111/58/37 113/57/37
f 78/139/67 79/166/2 110/167/96
f 107/61/97 106/168/21 108/63/37
f 151/66/98 155/65/42 100/64/32
f 112/59/95 116/169/99 125/68/100
f 126/69/101 153/70/102 151/66/98
f 105/71/2 111/58/37 112/59/95
f 124/74/37 128/73/95 116/72/99
f 130/77/80 132/76/103 126/75/101
f 123/80/37 120/79/104 109/78/105
f 129/83/21 119/82/82 120/81/104
f 115/84/106 119/82/82 129/83/21
f 128/73/95 124/74/37 122/86/21
f 121/88/107 120/87/104 130/77/80
f 128/73/95 121/88/107 127/90/108
f 120/87/104 119/82/82 132/76/103
f 116/72/99 128/73/95 131/89/109
f 132/76/103 119/82/82 115/84/106
f 107/92/97 121/95/107 122/94/21
f 109/78/105 120/79/104 121/95/107
f 131/89/109 127/90/108 114/96/79
f 127/90/108 130/77/80 118/97/80
f 133/100/110 134/99/55 93/98/54
f 137/101/111 148/103/112 147/102/113
f 99/51/78 135/170/114 142/104/75
f 140/105/91 137/101/111 136/11/74
f 95/106/32 141/171/66 147/108/113
f 133/109/110 137/101/111 138/111/61
f 136/112/74 137/101/111 133/109/110
f 99/113/78 143/114/115 135/53/114
f 143/114/115 144/118/89 149/107/89
f 148/116/112 140/105/91 103/52/32
f 149/107/89 147/108/113 148/116/112
f 97/117/71 145/120/15 143/114/115
f 143/114/115 146/119/90 144/118/89
f 145/120/15 146/119/90 143/114/115
f 153/122/102 156/121/21 155/65/42
f 153/122/102 152/125/116 154/123/63
f 154/123/63 152/125/116 115/124/106
f 125/68/100 114/21/79 104/126/93
f 81/165/94 94/172/69 66/173/21
f 104/164/93 94/172/69 81/165/94
f 79/166/2 105/174/2 110/167/96
f 77/163/92 110/167/96 104/164/93
f 82/175/85 80/161/87 71/176/72
f 82/175/85 70/177/117 69/145/76
f 83/178/86 69/145/76 78/139/67
f 85/152/71 84/143/78 90/150/84
f 84/143/78 89/146/81 90/150/84
f 87/148/82 85/152/71 88/149/83
f 88/149/83 85/152/71 90/150/84
f 102/162/88 93/179/54 76/180/8
f 147/102/113 141/135/66 138/111/61
f 140/105/91 148/103/112 137/101/111
f 135/53/114 150/115/89 103/52/32
f 143/114/115 150/115/89 135/53/114
f 142/104/75 133/100/110 102/136/88
f 100/64/32 146/48/90 145/44/15
f 100/64/32 145/44/15 101/43/70
f 96/137/32 146/48/90 100/64/32
f 94/4/69 118/20/80 126/69/101
f 152/138/116 153/70/102 126/69/101
f 101/43/70 126/69/101 151/66/98
f 81/165/94 83/178/86 77/163/92
f 67/181/15 91/158/71 80/161/87
f 3/23/13 9/1/1 73/3/3
f 26/43/30 23/4/4 24/6/6
f 5/182/65 75/7/7 6/9/9
f 49/53/34 54/10/10 52/12/12
f 4/19/17 3/13/13 74/15/14
f 10/34/28 2/16/15 16/18/16
f 5/182/65 4/19/17 75/7/7
f 29/126/36 23/4/4 34/21/19
f 17/30/26 1/25/21 18/27/23
f 13/33/27 12/28/24 20/29/25
f 7/32/15 1/25/21 15/31/6
f 2/16/15 7/32/15 14/17/5
f 11/26/22 13/33/27 18/27/23
f 12/28/24 10/34/28 19/24/20
f 22/39/5 7/35/15 21/37/6
f 23/183/4 1/38/21 22/39/5
f 21/37/6 10/40/28 27/42/29
f 56/49/31 61/45/31 98/47/32
f 96/137/32 58/48/33 98/47/32
f 22/5/5 21/50/6 24/6/6
f 53/105/60 28/52/32 52/12/12
f 36/184/47 113/57/37 33/59/38
f 79/129/2 9/1/1 32/60/39
f 106/168/21 30/61/40 108/63/37
f 26/43/30 100/64/32 63/66/43
f 36/169/47 33/59/38 41/68/44
f 111/58/37 105/71/2 33/59/38
f 113/185/37 36/72/47 124/74/37
f 37/97/18 42/75/45 45/77/18
f 108/186/37 31/78/41 123/80/37
f 123/187/37 39/81/49 129/83/21
f 38/82/26 35/84/50 129/83/21
f 40/188/51 122/86/21 44/73/38
f 43/90/53 45/77/18 40/88/51
f 40/88/51 44/73/38 43/90/53
f 45/77/18 47/76/48 39/87/49
f 44/73/38 36/72/47 46/89/52
f 42/75/45 35/84/50 47/76/48
f 40/95/51 30/92/40 122/94/21
f 39/79/49 31/78/41 40/95/51
f 41/91/44 34/96/19 46/89/52
f 34/96/19 37/97/18 43/90/53
f 27/136/29 93/98/54 48/100/56
f 49/170/34 25/51/5 54/104/10
f 52/12/12 50/11/11 53/105/60
f 141/171/66 95/106/32 59/108/58
f 51/101/57 48/109/56 138/111/61
f 54/189/10 48/109/56 50/112/11
f 56/118/31 55/114/62 61/107/31
f 62/115/31 28/52/32 60/116/59
f 59/108/58 61/107/31 60/116/59
f 57/120/15 24/117/6 55/114/62
f 63/66/43 155/65/42 65/122/46
f 64/125/64 65/122/46 154/123/63
f 117/190/21 35/124/50 154/123/63
f 32/67/39 29/126/36 41/68/44
f 10/40/28 12/131/24 6/41/9
f 13/133/27 4/22/17 12/131/24
f 8/54/35 9/1/1 13/133/27
f 93/191/54 27/42/29 76/134/8
f 51/101/57 138/111/61 59/102/58
f 21/50/6 27/136/29 54/104/10
f 37/20/18 23/4/4 42/69/45
f 35/192/50 42/69/45 64/138/64
f 79/193/2 78/139/67 73/141/3
f 92/5/78 94/4/69 97/6/71
f 70/182/117 71/9/72 75/7/7
f 135/53/114 139/12/73 142/10/75
f 73/14/3 68/13/68 74/15/14
f 80/155/87 86/142/77 67/144/15
f 70/182/117 75/7/7 69/19/76
f 104/126/93 114/21/79 94/4/69
f 81/194/94 66/147/21 88/149/83
f 83/154/86 90/150/84 82/151/85
f 72/153/15 85/152/71 66/147/21
f 67/144/15 84/143/78 72/153/15
f 81/194/94 88/149/83 83/154/86
f 82/151/85 89/146/81 80/155/87
f 67/181/15 72/156/15 91/158/71
f 72/156/15 66/159/21 92/157/78
f 71/176/72 80/161/87 102/162/88
f 149/45/89 144/49/89 95/46/32
f 144/49/89 146/48/90 98/47/32
f 92/5/78 97/6/71 91/50/71
f 135/53/114 103/52/32 139/12/73
f 116/184/99 112/59/95 113/57/37
f 77/163/92 78/139/67 110/167/96
f 109/62/105 107/61/97 108/63/37
f 101/43/70 151/66/98 100/64/32
f 110/67/96 112/59/95 125/68/100
f 110/67/96 105/71/2 112/59/95
f 113/185/37 124/74/37 116/72/99
f 118/97/80 130/77/80 126/75/101
f 108/186/37 123/80/37 109/78/105
f 123/187/37 129/83/21 120/81/104
f 117/85/21 115/84/106 129/83/21
f 121/188/107 128/73/95 122/86/21
f 127/90/108 121/88/107 130/77/80
f 131/89/109 128/73/95 127/90/108
f 130/77/80 120/87/104 132/76/103
f 125/91/100 116/72/99 131/89/109
f 126/75/101 132/76/103 115/84/106
f 106/93/21 107/92/97 122/94/21
f 107/92/97 109/78/105 121/95/107
f 125/91/100 131/89/109 114/96/79
f 114/96/79 127/90/108 118/97/80
f 102/136/88 133/100/110 93/98/54
f 91/50/71 99/51/78 142/104/75
f 139/12/73 140/105/91 136/11/74
f 149/107/89 95/106/32 147/108/113
f 134/110/55 133/109/110 138/111/61
f 142/189/75 136/112/74 133/109/110
f 150/115/89 143/114/115 149/107/89
f 150/115/89 148/116/112 103/52/32
f 150/115/89 149/107/89 148/116/112
f 99/113/78 97/117/71 143/114/115
f 151/66/98 153/122/102 155/65/42
f 156/121/21 153/122/102 154/123/63
f 117/190/21 154/123/63 115/124/106
f 110/67/96 125/68/100 104/126/93
f 70/177/117 82/175/85 71/176/72
f 83/178/86 82/175/85 69/145/76
f 77/163/92 83/178/86 78/139/67
f 71/176/72 102/162/88 76/180/8
f 137/101/111 147/102/113 138/111/61
f 91/50/71 142/104/75 102/136/88
f 101/43/70 94/4/69 126/69/101
f 115/192/106 152/138/116 126/69/101
